<?xml version="1.0" encoding="UTF-8"?>
<svg id="Layer_1" xmlns="http://www.w3.org/2000/svg" version="1.1" viewBox="0 0 256 256">
  <!-- Generator: Adobe Illustrator 30.2.1, SVG Export Plug-In . SVG Version: 2.1.1 Build 1)  -->
  <defs>
    <style>
      .st0 {
        fill: #fff;
      }
    </style>
  </defs>
  <rect class="st0" x="0" width="256" height="256" rx="70.4" ry="70.4"/>
  <path d="M195.98,88.49l25.3-25.3-28.47-28.47-25.3,25.3c-24.34-14.14-54.69-14.14-79.02,0l-25.3-25.3-28.47,28.47,25.3,25.3c-14.14,24.34-14.14,54.69,0,79.02l-25.3,25.3,28.47,28.47,25.28-25.28c11.87,6.93,25.41,10.64,39.52,10.64s27.65-3.71,39.52-10.64l25.28,25.28,28.47-28.47-25.3-25.3c14.14-24.34,14.14-54.69,0-79.02ZM100.88,155.15l-.03-.03c-14.94-14.96-14.94-39.28,0-54.23l.03-.03c7.48-7.47,17.3-11.2,27.12-11.2s19.65,3.74,27.13,11.22c14.96,14.96,14.96,39.29.02,54.25l-.03.03c-7.25,7.24-16.87,11.22-27.12,11.22s-19.87-3.99-27.12-11.22Z"/>
</svg>