<svg xmlns="http://www.w3.org/2000/svg" data-name="Isolation Mode" viewBox="0 0 136.76 136.76">
  <rect width="136.76" height="136.76" y="0" fill="#fff" rx="37.61" ry="37.61"/>
  <path d="M68.38 110.39c-11.22 0-21.77-4.37-29.7-12.3-16.38-16.38-16.38-43.03 0-59.4 16.38-16.38 43.03-16.38 59.4 0 16.38 16.38 16.38 43.03 0 59.4-7.93 7.93-18.48 12.3-29.7 12.3m0-62.5c-5.25 0-10.5 2-14.5 5.99-7.99 7.99-7.99 21 0 28.99 3.87 3.87 9.02 6 14.5 6s10.62-2.13 14.5-6c7.99-7.99 7.99-21 0-28.99-4-4-9.25-5.99-14.5-5.99"/>
  <path d="m75.276 46.288 27.733-27.733 15.21 15.21-27.733 27.733zM18.55 33.755l15.209-15.21 27.733 27.733-15.21 15.21zm.006 69.247L46.29 75.27 61.5 90.48l-27.733 27.733zm56.717-12.527 15.21-15.21 27.733 27.733-15.21 15.21z"/>
</svg>
