<svg xmlns="http://www.w3.org/2000/svg" version="1.1" viewBox="0 0 225 225">
  <path fill="#f3ba2f" d="M0 0h225v225H0z"/>
  <g fill="#fff">
    <path d="m81.14 99.61 31.36-31.36 31.37 31.37 18.25-18.24-49.62-49.62-49.61 49.6L81.13 99.6m-49.37 12.9 18.25-18.25 18.24 18.25L50 130.74zm49.38 12.88 31.36 31.35 31.37-31.37 18.26 18.23-49.63 49.63-49.61-49.61-.03-.03 18.27-18.22m75.61-12.86 18.24-18.24 18.25 18.24-18.24 18.24z"/>
    <path d="m131 112.5-18.5-18.53-13.69 13.68-1.58 1.58-3.24 3.24-.03.03.03.03 18.5 18.5L131 112.52h-.02"/>
  </g>
</svg>
