<svg xmlns="http://www.w3.org/2000/svg" version="1.1" viewBox="0 0 225 225">
  <path fill="#50af95" d="M0 0h225v225H0z"/>
  <g fill-rule="evenodd">
    <path fill="#fff" d="m53.12 31.8-34.16 71.77c-.27.55-.15 1.21.3 1.62l92.27 88.42c.54.52 1.4.52 1.95 0l92.27-88.41c.44-.42.56-1.08.3-1.62l-34.16-71.76c-.23-.49-.72-.81-1.26-.81H54.39c-.54 0-1.04.31-1.27.8Z"/>
    <path fill="#50af95" d="M124.35 110.94c-.66.05-4.08.25-11.72.25-6.07 0-10.38-.18-11.9-.25-23.47-1.03-40.98-5.12-40.98-10.01s17.52-8.97 40.98-10.02v15.96c1.53.11 5.93.37 12 .37 7.29 0 10.94-.3 11.59-.36V90.93c23.42 1.04 40.89 5.13 40.89 10.01s-17.47 8.96-40.89 10h.02Zm0-21.67V74.99h32.68V53.21H68.06v21.78h32.67v14.28c-26.56 1.22-46.53 6.48-46.53 12.78s19.97 11.56 46.53 12.78v45.76h23.62v-45.78c26.5-1.22 46.44-6.48 46.44-12.77s-19.92-11.55-46.44-12.78Zm0 0"/>
  </g>
</svg>
