<svg xmlns="http://www.w3.org/2000/svg" version="1.1" viewBox="0 0 225 225">
  <path fill="#0033ad" d="M0 0h225v225H0z"/>
  <path fill="#fff" d="M80 112.02c-.31 5.33 3.8 9.9 9.13 10.21h.58c5.37 0 9.71-4.34 9.67-9.71 0-5.37-4.34-9.71-9.71-9.67-5.14 0-9.4 4.03-9.67 9.17m-36.15-2.49c-1.73-.12-3.22 1.23-3.3 2.95s1.23 3.22 2.95 3.3c1.73.12 3.18-1.23 3.3-2.95.12-1.73-1.23-3.18-2.95-3.3m35.53-53.76c1.53-.77 2.15-2.69 1.38-4.22s-2.69-2.15-4.22-1.38-2.15 2.65-1.38 4.18c.77 1.57 2.65 2.23 4.22 1.42-.04 0 0 0 0 0m9.83 17.15c2.38-1.19 3.34-4.11 2.15-6.48-1.19-2.38-4.11-3.34-6.48-2.15s-3.34 4.11-2.15 6.48c1.19 2.38 4.11 3.34 6.48 2.15M56.13 84.7a4.02 4.02 0 0 0 5.53-1.15 4.02 4.02 0 0 0-1.15-5.53 4.02 4.02 0 0 0-5.53 1.15c-1.23 1.84-.69 4.34 1.15 5.53M62 107.8c-2.69-.15-4.95 1.88-5.1 4.57s1.88 4.95 4.57 5.1 4.95-1.88 5.1-4.57a4.84 4.84 0 0 0-4.57-5.1m-5.33 32.5c-1.96 1-2.76 3.38-1.77 5.37 1 1.96 3.38 2.76 5.37 1.77 1.96-1 2.76-3.38 1.77-5.37-1-1.96-3.42-2.76-5.37-1.77m18.8-42.52c2.65 1.73 6.18 1 7.87-1.65 1.73-2.65 1-6.18-1.65-7.87-2.65-1.73-6.18-1-7.87 1.65-1.73 2.61-1 6.14 1.65 7.87m59.67-25.24c2.23 1.46 5.26.84 6.72-1.38s.84-5.26-1.38-6.72c-2.23-1.46-5.26-.84-6.72 1.38-1.5 2.26-.88 5.26 1.38 6.72m9.9-17.08c1.46.96 3.38.54 4.34-.92s.54-3.38-.92-4.34-3.38-.54-4.34.88c-.92 1.46-.5 3.42.92 4.37Zm-9.17 47.31c-5.33-.31-9.94 3.8-10.21 9.13-.31 5.33 3.8 9.94 9.13 10.21h.54c5.33 0 9.67-4.34 9.67-9.71.04-5.1-3.99-9.36-9.13-9.63m-43.48-5.68a9.71 9.71 0 0 0 8.67 5.33c5.33 0 9.67-4.34 9.67-9.71 0-1.5-.35-2.99-1.04-4.37-2.42-4.8-8.25-6.72-13.01-4.3-4.8 2.46-6.72 8.29-4.3 13.05Zm75.94-12.39c1.96-1 2.72-3.42 1.73-5.37-1-1.96-3.42-2.72-5.37-1.73s-2.72 3.38-1.77 5.33c1.04 1.96 3.42 2.76 5.41 1.77m-24.56 3.07c-2.8 1.42-3.95 4.83-2.53 7.64 1.42 2.8 4.83 3.95 7.64 2.53s3.95-4.83 2.53-7.64-4.83-3.91-7.64-2.53M112.12 54c2.19.12 4.07-1.57 4.22-3.76s-1.57-4.07-3.76-4.22a4 4 0 0 0-4.22 3.72 4.045 4.045 0 0 0 3.76 4.26m-.04 25.06c3.15.19 5.83-2.23 5.99-5.37.19-3.15-2.23-5.83-5.37-5.99-3.15-.19-5.83 2.23-5.99 5.37-.15 3.15 2.23 5.83 5.37 5.99m-30.85 58.17c2.8-1.42 3.95-4.83 2.53-7.64-1.42-2.8-4.83-3.95-7.64-2.53s-3.95 4.83-2.53 7.64c1.42 2.8 4.83 3.95 7.64 2.53m34.53-49.84c-2.92 4.49-1.69 10.48 2.8 13.39 4.49 2.92 10.48 1.69 13.39-2.8 2.92-4.49 1.69-10.48-2.8-13.39-1.57-1.04-3.42-1.57-5.3-1.57-3.26 0-6.29 1.65-8.1 4.37Zm16.85 40.52c-2.42-4.8-8.25-6.72-13.01-4.3-4.8 2.42-6.72 8.25-4.3 13.01 2.42 4.8 8.25 6.72 13.01 4.3a9.64 9.64 0 0 0 4.34-12.93zm16.92-.69c-2.65-1.73-6.18-1-7.87 1.65-1.73 2.65-1 6.18 1.65 7.87 2.65 1.73 6.18 1 7.87-1.65 1.73-2.61 1-6.14-1.65-7.87m18.57-14.55a4.817 4.817 0 0 0-4.57-5.1 4.817 4.817 0 0 0-5.1 4.57 4.817 4.817 0 0 0 4.57 5.1c2.65.15 4.95-1.92 5.1-4.57m13.39-3.45c-1.73-.12-3.22 1.23-3.3 2.95-.08 1.73 1.23 3.22 2.95 3.3 1.73.12 3.18-1.23 3.3-2.95a3.157 3.157 0 0 0-2.95-3.3m-12.62 31.08a4.02 4.02 0 0 0-5.53 1.15 4.02 4.02 0 0 0 1.15 5.53 4.02 4.02 0 0 0 5.53-1.15c1.23-1.84.69-4.34-1.15-5.53m-88.95 29.24a3.144 3.144 0 0 0-4.34.88c-.96 1.46-.54 3.38.88 4.34 1.46.96 3.38.54 4.34-.88 1-1.42.58-3.38-.88-4.34m65.7-.31c-1.53.77-2.15 2.69-1.38 4.22s2.69 2.15 4.22 1.38 2.15-2.65 1.38-4.18c-.77-1.57-2.65-2.23-4.22-1.42.04 0 0 0 0 0m-36.38-31.62c2.92-4.49 1.69-10.48-2.8-13.43-4.49-2.92-10.48-1.69-13.43 2.8s-1.69 10.48 2.8 13.43c1.57 1.04 3.42 1.57 5.3 1.57 3.3.04 6.33-1.61 8.13-4.37m-19.38 14.85c-2.23-1.46-5.26-.84-6.72 1.38-1.46 2.23-.84 5.26 1.38 6.72s5.26.84 6.72-1.38c1.5-2.23.88-5.26-1.38-6.72m22.6 18.54c-2.19-.12-4.07 1.57-4.22 3.76s1.57 4.07 3.76 4.22a4 4 0 0 0 4.22-3.72 4.045 4.045 0 0 0-3.76-4.26m.04-25.06c-3.15-.19-5.83 2.23-5.99 5.37-.19 3.15 2.23 5.83 5.37 5.99 3.15.15 5.83-2.23 5.99-5.37.19-3.11-2.23-5.83-5.37-5.99m23.29 6.14c-2.38 1.23-3.34 4.14-2.11 6.52s4.14 3.34 6.52 2.11c2.38-1.19 3.34-4.11 2.15-6.48-1.23-2.38-4.14-3.38-6.56-2.15"/>
</svg>
