<svg xmlns="http://www.w3.org/2000/svg" version="1.1" viewBox="0 0 225 225">
  <path fill="#2775ca" d="M0 0h225v225H0z"/>
  <g fill="#fff">
    <path d="M141.43 129.16c0-15.34-9.2-20.6-27.61-22.79-13.15-1.75-15.78-5.26-15.78-11.4s4.38-10.08 13.15-10.08c7.89 0 12.27 2.63 14.46 9.2.44 1.31 1.75 2.19 3.07 2.19h7.01c1.75 0 3.07-1.31 3.07-3.07v-.44c-1.75-9.64-9.64-17.09-19.72-17.97V64.28c0-1.75-1.31-3.07-3.51-3.51H109c-1.75 0-3.07 1.31-3.51 3.51v10.08c-13.15 1.75-21.48 10.52-21.48 21.48 0 14.46 8.77 20.16 27.18 22.35 12.27 2.19 16.22 4.82 16.22 11.83s-6.14 11.83-14.46 11.83c-11.4 0-15.34-4.82-16.66-11.4-.44-1.75-1.75-2.63-3.07-2.63h-7.45c-1.75 0-3.07 1.31-3.07 3.07v.44c1.75 10.96 8.77 18.85 23.23 21.04v10.52c0 1.75 1.31 3.07 3.51 3.51h6.57c1.75 0 3.07-1.31 3.51-3.51v-10.52c13.15-2.19 21.92-11.4 21.92-23.23Z"/>
    <path d="M90.15 175.18c-34.19-12.27-51.72-50.41-39.01-84.16 6.57-18.41 21.04-32.43 39.01-39.01 1.75-.88 2.63-2.19 2.63-4.38v-6.14c0-1.75-.88-3.07-2.63-3.51-.44 0-1.31 0-1.75.44-41.64 13.15-64.43 57.42-51.28 99.06 7.89 24.55 26.74 43.39 51.28 51.28 1.75.88 3.51 0 3.94-1.75.44-.44.44-.88.44-1.75v-6.14c0-1.31-1.31-3.07-2.63-3.94m46.46-136.76c-1.75-.88-3.51 0-3.94 1.75-.44.44-.44.88-.44 1.75v6.14c0 1.75 1.31 3.51 2.63 4.38 34.19 12.27 51.72 50.41 39.01 84.16-6.57 18.41-21.04 32.43-39.01 39.01-1.75.88-2.63 2.19-2.63 4.38v6.14c0 1.75.88 3.07 2.63 3.51.44 0 1.31 0 1.75-.44 41.64-13.15 64.43-57.42 51.28-99.06-7.89-24.98-27.18-43.83-51.28-51.72"/>
  </g>
</svg>
