<svg xmlns="http://www.w3.org/2000/svg" version="1.1" viewBox="0 0 983 142">
  <rect width="136.76" height="136.76" x=".14" y=".24" fill="#fff" rx="37.61" ry="37.61"/>
  <path fill="#131919" d="M104.83 47.51 118.34 34l-15.21-15.21L89.62 32.3c-13-7.55-29.21-7.55-42.22 0L33.89 18.79 18.68 34l13.51 13.51c-7.55 13-7.55 29.21 0 42.22l-13.51 13.51 15.21 15.21 13.51-13.51c6.34 3.7 13.58 5.68 21.12 5.68s14.77-1.98 21.12-5.68l13.51 13.51 15.21-15.21-13.51-13.51c7.55-13 7.55-29.21 0-42.22Zm-50.8 35.61c-7.99-8-7.99-21 0-28.99 4-4 9.24-6 14.49-6s10.5 2 14.49 5.99c7.99 7.99 7.99 20.99 0 28.99-3.87 3.88-9.02 6.01-14.49 6.01s-10.62-2.13-14.49-6"/>
  <text fill="#f4f4f4" font-family="TTFirsNeueTrl-DemiBold,&quot;TT Firs Neue Trl&quot;" font-size="111.15" font-weight="300" letter-spacing="-.01em" transform="translate(178.11 105.08)"><tspan x="0" y="0">CryptoCasinos</tspan></text>
</svg>
