<svg xmlns="http://www.w3.org/2000/svg" data-name="Layer 1" viewBox="0 0 798.08 101.71">
  <path fill="#f4f4f4" d="M42.79 82.81c-6.22 0-11.97-1.06-17.23-3.17Q17.67 76.475 12 70.97c-3.78-3.67-6.72-8-8.84-13-2.11-5-3.17-10.43-3.17-16.28s1.06-11.28 3.17-16.28 5.06-9.34 8.84-13 8.3-6.56 13.56-8.67S36.56.57 42.79.57c4.15 0 7.91.43 11.28 1.28q5.055 1.275 9 3.39C65.7 6.65 68 8.22 69.96 9.96s3.65 3.54 5.06 5.39q4.995 6.45 7.23 14.67H65.02a21.2 21.2 0 0 0-4.45-6.89c-1.71-1.7-3.98-3.3-6.84-4.78q-4.275-2.22-10.95-2.22c-3.63 0-6.97.63-10 1.89q-4.56 1.89-7.89 5.28c-2.22 2.26-3.97 4.95-5.22 8.06-1.26 3.11-1.89 6.56-1.89 10.34s.59 7.47 1.78 10.62c1.18 3.15 2.87 5.84 5.06 8.06s4.82 3.93 7.89 5.11c3.07 1.19 6.5 1.78 10.28 1.78 4.59 0 8.35-.81 11.28-2.45 2.93-1.63 5.24-3.41 6.95-5.33 2-2.3 3.52-4.89 4.56-7.78h17.23c-1.63 5.78-4.19 10.97-7.67 15.56-1.48 1.93-3.22 3.83-5.22 5.72s-4.33 3.56-7 5c-2.67 1.45-5.67 2.61-9 3.5s-7.04 1.33-11.12 1.33ZM91.15 23.9h15.56v8.34h.56c.67-1.78 1.67-3.33 3-4.67 1.11-1.18 2.59-2.37 4.45-3.56 1.85-1.18 4.19-1.78 7-1.78h6.67v15.01h-8.34c-4.22 0-7.5 1.16-9.84 3.49-2.33 2.33-3.5 5.48-3.5 9.46v30.4H91.15zm66.13 56.69h-12.23L130.04 23.9h16.12l11.12 43.35h4.45l12.23-43.35h16.12l-22.79 77.81h-16.12zm37.79-56.69h15.56v7.23h.56c1.18-1.63 2.63-3.11 4.33-4.45 1.48-1.11 3.32-2.13 5.5-3.06s4.83-1.39 7.95-1.39c3.63 0 7.02.71 10.17 2.11q4.725 2.115 8.28 6t5.61 9.45c1.37 3.71 2.06 7.86 2.06 12.45s-.69 8.75-2.06 12.45q-2.055 5.565-5.61 9.45c-2.37 2.59-5.13 4.6-8.28 6-3.15 1.41-6.54 2.11-10.17 2.11-3.11 0-5.76-.46-7.95-1.39s-4.02-1.95-5.5-3.06c-1.71-1.33-3.15-2.81-4.33-4.45h-.56v28.34h-15.56zm30.02 45.02c3.93 0 7.22-1.45 9.89-4.33 2.67-2.89 4-7 4-12.34s-1.33-9.45-4-12.34-5.97-4.33-9.89-4.33c-4.22 0-7.69 1.44-10.39 4.33-2.71 2.89-4.06 7-4.06 12.34s1.35 9.45 4.06 12.34c2.7 2.89 6.17 4.33 10.39 4.33m41.12-31.68h-7.23V23.9h7.23V11.67h15.56V23.9h16.12v13.34h-16.12v30.01h16.67v13.34h-32.23zm67.81 45.01c-4.45 0-8.58-.78-12.39-2.33-3.82-1.56-7.11-3.69-9.89-6.39s-4.95-5.89-6.5-9.56c-1.56-3.67-2.33-7.58-2.33-11.73s.78-8.06 2.33-11.73 3.72-6.85 6.5-9.56c2.78-2.7 6.08-4.84 9.89-6.39 3.82-1.56 7.95-2.33 12.39-2.33s8.56.78 12.34 2.33 7.06 3.69 9.84 6.39c2.78 2.71 4.96 5.89 6.56 9.56 1.59 3.67 2.39 7.58 2.39 11.73s-.8 8.06-2.39 11.73-3.78 6.85-6.56 9.56q-4.17 4.065-9.84 6.39c-3.78 1.56-7.89 2.33-12.34 2.33m0-13.33c2.07 0 4.02-.41 5.84-1.22 1.81-.82 3.41-1.95 4.78-3.39 1.37-1.45 2.45-3.19 3.22-5.22q1.17-3.06 1.17-6.84c0-3.78-.39-4.8-1.17-6.84s-1.85-3.78-3.22-5.22a15.1 15.1 0 0 0-4.78-3.39c-1.82-.81-3.76-1.22-5.84-1.22s-4.02.41-5.84 1.22c-1.82.82-3.41 1.95-4.78 3.39s-2.45 3.19-3.22 5.22q-1.17 3.06-1.17 6.84c0 3.78.39 4.8 1.17 6.84s1.85 3.78 3.22 5.22c1.37 1.45 2.96 2.58 4.78 3.39 1.81.82 3.76 1.22 5.84 1.22m79.47 13.89c-6.22 0-11.97-1.06-17.23-3.17q-7.89-3.165-13.56-8.67c-3.78-3.67-6.73-8-8.84-13s-3.17-10.43-3.17-16.28 1.06-11.28 3.17-16.28 5.06-9.34 8.84-13 8.3-6.56 13.56-8.67 11-3.17 17.23-3.17c4.15 0 7.91.43 11.28 1.28q5.055 1.275 9 3.39c2.63 1.41 4.93 2.98 6.89 4.72s3.65 3.54 5.06 5.39c3.33 4.3 5.74 9.19 7.22 14.67h-17.23a21.2 21.2 0 0 0-4.45-6.89c-1.71-1.7-3.98-3.3-6.84-4.78q-4.275-2.22-10.95-2.22c-3.63 0-6.97.63-10 1.89q-4.56 1.89-7.89 5.28c-2.22 2.26-3.96 4.95-5.22 8.06s-1.89 6.56-1.89 10.34.59 7.47 1.78 10.62c1.18 3.15 2.87 5.84 5.06 8.06s4.82 3.93 7.89 5.11c3.07 1.19 6.5 1.78 10.28 1.78 4.59 0 8.35-.81 11.28-2.45 2.93-1.63 5.24-3.41 6.95-5.33 2-2.3 3.52-4.89 4.56-7.78h17.23c-1.63 5.78-4.19 10.97-7.67 15.56-1.48 1.93-3.22 3.83-5.22 5.72s-4.33 3.56-7 5c-2.67 1.45-5.67 2.61-9 3.5s-7.04 1.33-11.12 1.33Zm71.7-.56c-3.63 0-7.02-.71-10.17-2.11q-4.725-2.115-8.28-6t-5.61-9.45c-1.37-3.7-2.06-7.85-2.06-12.45s.68-8.74 2.06-12.45q2.055-5.55 5.61-9.45 3.555-3.885 8.28-6c3.15-1.41 6.54-2.11 10.17-2.11 3.11 0 5.76.46 7.95 1.39s4.02 1.95 5.5 3.06c1.7 1.33 3.15 2.82 4.34 4.45h.56V23.9h15.56v56.69h-15.56v-7.22h-.56c-1.19 1.63-2.63 3.11-4.34 4.45-1.48 1.11-3.32 2.13-5.5 3.06-2.19.92-4.83 1.39-7.95 1.39Zm3.89-13.33c4.22 0 7.69-1.45 10.39-4.33 2.7-2.89 4.06-7 4.06-12.34s-1.35-9.45-4.06-12.34-6.17-4.33-10.39-4.33c-3.93 0-7.23 1.44-9.89 4.33-2.67 2.89-4 7-4 12.34s1.33 9.45 4 12.34 5.96 4.33 9.89 4.33m65.58 13.33c-3.04 0-5.78-.28-8.23-.83s-4.61-1.32-6.5-2.28-3.56-2.04-5-3.22c-1.45-1.18-2.65-2.41-3.61-3.67a26.5 26.5 0 0 1-5-10h16.12c.59 1.41 1.41 2.63 2.45 3.67.89.89 2.11 1.71 3.67 2.45s3.59 1.11 6.11 1.11c3.63 0 6.11-.5 7.45-1.5 1.33-1 2-2.35 2-4.06q0-2.22-2.61-3.33c-1.74-.74-3.91-1.41-6.5-2s-5.39-1.22-8.39-1.89-5.8-1.67-8.39-3-4.76-3.11-6.5-5.33-2.61-5.19-2.61-8.89q0-3.33 1.56-6.45c1.04-2.07 2.56-3.91 4.56-5.5s4.48-2.87 7.45-3.83c2.96-.96 6.41-1.45 10.34-1.45 2.96 0 5.63.26 8 .78s4.46 1.22 6.28 2.11 3.39 1.89 4.72 3 2.45 2.22 3.33 3.33c2.15 2.67 3.59 5.71 4.33 9.11h-15.56c-.44-1.04-1.11-1.96-2-2.78q-1.23-1.005-3.39-1.89c-1.45-.59-3.35-.89-5.72-.89-2.82 0-4.82.46-6 1.39-1.19.93-1.78 1.95-1.78 3.06q0 2.22 2.61 3.33c1.74.74 3.91 1.41 6.5 2s5.39 1.22 8.39 1.89 5.8 1.67 8.39 3 4.76 3.11 6.5 5.34c1.74 2.22 2.61 5.19 2.61 8.89 0 2.37-.56 4.65-1.67 6.84s-2.74 4.13-4.89 5.83c-2.15 1.71-4.82 3.08-8 4.11-3.19 1.04-6.86 1.56-11 1.56Zm41.12-65.58c-2.52 0-4.63-.83-6.34-2.5s-2.56-3.61-2.56-5.84.85-4.17 2.56-5.84c1.7-1.67 3.82-2.5 6.34-2.5s4.63.83 6.34 2.5c1.7 1.67 2.56 3.61 2.56 5.84s-.85 4.17-2.56 5.84-3.82 2.5-6.34 2.5M588 23.9h15.56v56.69H588zm26.68 0h15.56v7.78h.56c1.04-1.78 2.41-3.33 4.11-4.67 1.48-1.18 3.32-2.28 5.5-3.28s4.91-1.5 8.17-1.5c6.96 0 12.41 2.02 16.34 6.06s5.89 9.99 5.89 17.84v34.46h-15.56V48.36c0-4.22-1.04-7.41-3.11-9.56-2.08-2.15-4.93-3.22-8.56-3.22-1.78 0-3.48.37-5.11 1.11s-3.06 1.76-4.28 3.06-2.19 2.87-2.89 4.72c-.71 1.85-1.06 3.89-1.06 6.11v30.01h-15.56zm94.48 58.35c-4.45 0-8.58-.78-12.39-2.33-3.82-1.56-7.11-3.69-9.89-6.39s-4.95-5.89-6.5-9.56c-1.56-3.67-2.33-7.58-2.33-11.73s.78-8.06 2.33-11.73c1.56-3.67 3.72-6.85 6.5-9.56 2.78-2.7 6.08-4.84 9.89-6.39 3.82-1.56 7.95-2.33 12.39-2.33s8.56.78 12.34 2.33 7.06 3.69 9.84 6.39c2.78 2.71 4.96 5.89 6.56 9.56 1.59 3.67 2.39 7.58 2.39 11.73s-.8 8.06-2.39 11.73-3.78 6.85-6.56 9.56q-4.17 4.065-9.84 6.39c-3.78 1.56-7.89 2.33-12.34 2.33m0-13.33c2.07 0 4.02-.41 5.84-1.22 1.81-.82 3.41-1.95 4.78-3.39 1.37-1.45 2.45-3.19 3.22-5.22q1.17-3.06 1.17-6.84c0-3.78-.39-4.8-1.17-6.84s-1.85-3.78-3.22-5.22A15.1 15.1 0 0 0 715 36.8c-1.82-.81-3.76-1.22-5.84-1.22s-4.02.41-5.84 1.22c-1.82.82-3.41 1.95-4.78 3.39s-2.45 3.19-3.22 5.22q-1.17 3.06-1.17 6.84c0 3.78.39 4.8 1.17 6.84s1.85 3.78 3.22 5.22c1.37 1.45 2.96 2.58 4.78 3.39 1.82.82 3.76 1.22 5.84 1.22m63.36 13.33c-3.04 0-5.78-.28-8.23-.83s-4.61-1.32-6.5-2.28-3.56-2.04-5-3.22c-1.45-1.18-2.65-2.41-3.61-3.67a26.5 26.5 0 0 1-5-10h16.12c.59 1.41 1.41 2.63 2.45 3.67.89.89 2.11 1.71 3.67 2.45s3.59 1.11 6.11 1.11c3.63 0 6.11-.5 7.45-1.5 1.33-1 2-2.35 2-4.06q0-2.22-2.61-3.33c-1.74-.74-3.91-1.41-6.5-2s-5.39-1.22-8.39-1.89-5.8-1.67-8.39-3-4.76-3.11-6.5-5.33-2.61-5.19-2.61-8.89q0-3.33 1.56-6.45c1.04-2.07 2.56-3.91 4.56-5.5s4.48-2.87 7.45-3.83c2.96-.96 6.41-1.45 10.34-1.45 2.96 0 5.63.26 8 .78s4.46 1.22 6.28 2.11 3.39 1.89 4.72 3 2.45 2.22 3.33 3.33c2.15 2.67 3.59 5.71 4.33 9.11h-15.56c-.44-1.04-1.11-1.96-2-2.78q-1.23-1.005-3.39-1.89c-1.45-.59-3.35-.89-5.72-.89-2.82 0-4.82.46-6 1.39-1.19.93-1.78 1.95-1.78 3.06q0 2.22 2.61 3.33c1.74.74 3.91 1.41 6.5 2s5.39 1.22 8.39 1.89 5.8 1.67 8.39 3 4.76 3.11 6.5 5.34c1.74 2.22 2.61 5.19 2.61 8.89 0 2.37-.56 4.65-1.67 6.84s-2.74 4.13-4.89 5.83c-2.15 1.71-4.82 3.08-8 4.11-3.19 1.04-6.86 1.56-11 1.56Z"/>
</svg>
