<svg xmlns="http://www.w3.org/2000/svg" xmlns:xlink="http://www.w3.org/1999/xlink" fill="none" viewBox="0 0 217 56">
  <g clip-path="url(#a)">
    <path fill="#FE20A7" d="M217 0H0v56h211.374z"/>
    <path fill="#FFF00D" fill-rule="evenodd" d="M11.5 42.167a2 2 0 0 0 2 2h3a2 2 0 0 0 2-2V32.5a1.167 1.167 0 0 1 2.333 0v9.667a2 2 0 0 0 2 2h3a2 2 0 0 0 2-2V31.939a2 2 0 0 0-.336-1.11l-1.257-1.886a2 2 0 0 1 0-2.219l1.257-1.887a2 2 0 0 0 .336-1.11V13.5a2 2 0 0 0-2-2H13.5a2 2 0 0 0-2 2zm7-19a1.167 1.167 0 0 0 2.333 0v-3.5a1.167 1.167 0 0 0-2.333 0zm28.001 19a2 2 0 0 1-2 2H32.168a2 2 0 0 1-2-2V13.5a2 2 0 0 1 2-2H44.5a2 2 0 0 1 2 2zm-7-7.167a1.167 1.167 0 0 1-2.333 0V19.667a1.167 1.167 0 0 1 2.333 0z" clip-rule="evenodd"/>
    <path fill="#FFF00D" d="M95.5 11.5a2 2 0 0 0-2 2v3.542c0 .805.653 1.458 1.458 1.458.806 0 1.459.653 1.459 1.458v22.209a2 2 0 0 0 2 2h3a2 2 0 0 0 2-2V20.5a2 2 0 0 1 2-2h1.166a2 2 0 0 0 2-2v-3a2 2 0 0 0-2-2zm-25.5 2a2 2 0 0 0-2-2h-3a2 2 0 0 0-2 2v28.667a2 2 0 0 0 2 2h3a2 2 0 0 0 2-2V32.5a1.167 1.167 0 0 1 2.333 0v9.667a2 2 0 0 0 2 2h3a2 2 0 0 0 2-2V31.939a2 2 0 0 0-.335-1.11l-1.258-1.886a2 2 0 0 1 0-2.219l1.258-1.887a2 2 0 0 0 .335-1.11V13.5a2 2 0 0 0-2-2h-3a2 2 0 0 0-2 2v9.667a1.167 1.167 0 1 1-2.333 0z"/>
    <path fill="#FFF00D" d="M81.666 42.167a2 2 0 0 0 2 2H92.5a2 2 0 0 0 2-2v-10a2 2 0 0 0-2-2h-2.666a1.167 1.167 0 1 1 0-2.334H92.5a2 2 0 0 0 2-2v-3a2 2 0 0 0-2-2h-2.666a1.167 1.167 0 1 1 0-2.333h.291c.806 0 1.459-.653 1.459-1.458V13.5a2 2 0 0 0-2-2h-5.917a2 2 0 0 0-2 2zm-32.666 0a2 2 0 0 0 2 2h7.833a2 2 0 0 0 2-2v-4a2 2 0 0 0-2-2H58a2 2 0 0 1-2-2V20.5a2 2 0 0 1 2-2h.833a2 2 0 0 0 2-2v-3a2 2 0 0 0-2-2H51a2 2 0 0 0-2 2z"/>
    <path fill="#FFF00D" fill-rule="evenodd" d="M120 42.167a2 2 0 0 1-2 2h-3a2 2 0 0 1-2-2V13.5a2 2 0 0 1 2-2h12.333a2 2 0 0 1 2 2v10.228a2 2 0 0 1-.336 1.11l-1.257 1.886a2 2 0 0 0 0 2.219l1.257 1.886a2 2 0 0 1 .336 1.11v10.228a2 2 0 0 1-2 2h-3a2 2 0 0 1-2-2V32.5a1.166 1.166 0 1 0-2.333 0zm2.333-19a1.166 1.166 0 1 1-2.333 0v-3.5a1.167 1.167 0 1 1 2.333 0z" clip-rule="evenodd"/>
    <path fill="#FFF00D" d="M161.5 13.5a2 2 0 0 0-2-2h-3a2 2 0 0 0-2 2v28.667a2 2 0 0 0 2 2h3a2 2 0 0 0 2-2V32.5a1.166 1.166 0 1 1 2.333 0v9.667a2 2 0 0 0 2 2h3a2 2 0 0 0 2-2V13.5a2 2 0 0 0-2-2h-3a2 2 0 0 0-2 2v9.667a1.166 1.166 0 1 1-2.333 0zm11.666 28.667a2 2 0 0 0 2 2h8.833a2 2 0 0 0 2-2v-10a2 2 0 0 0-2-2h-2.666a1.167 1.167 0 1 1 0-2.334h2.666a2 2 0 0 0 2-2v-3a2 2 0 0 0-2-2h-2.666a1.166 1.166 0 1 1 0-2.333h.291c.806 0 1.459-.653 1.459-1.458V13.5a2 2 0 0 0-2-2h-5.917a2 2 0 0 0-2 2zm14.834 0a2 2 0 0 0 2 2h10a2 2 0 0 0 2-2V22.835a2 2 0 0 0-2-2h-3.832a1.168 1.168 0 1 1 0-2.335h6.747a2 2 0 0 0 2-2v-3a2 2 0 0 0-2-2H190a2 2 0 0 0-2 2v12.335a2 2 0 0 0 2 2h4.335a1.165 1.165 0 0 1 0 2.33H190a2 2 0 0 0-2 2zm-35.667 0a2 2 0 0 1-2 2H142.5a2 2 0 0 1-2-2V13.5a2 2 0 0 1 2-2h7.833a2 2 0 0 1 2 2v3a2 2 0 0 1-2 2h-.833a2 2 0 0 0-2 2v13.667a2 2 0 0 0 2 2h.833a2 2 0 0 1 2 2zm-20.833 0a2 2 0 0 0 2 2h3a2 2 0 0 0 2-2V13.5a2 2 0 0 0-2-2h-3a2 2 0 0 0-2 2z"/>
  </g>
  <defs>
    <clipPath id="a">
      <path fill="#fff" d="M0 0h217v56H0z"/>
    </clipPath>
  </defs>
</svg>
