<svg xmlns="http://www.w3.org/2000/svg" version="1.1" viewBox="0 0 516.85 517">
  <path fill="#eeaf0e" d="M252.36 0h12.21c6.87.24 13.73.61 20.57 1.26-2.74 10.49-5.61 20.96-8.32 31.46-38.69-3.09-78.06 3.91-113.32 20.13-5.32-9.3-10.78-18.52-16.19-27.77C180.08 9.52 216.08.82 252.36 0m77.78 43.6c2.84-10.33 5.62-20.67 8.36-31.03 28.86 9.6 56.23 23.9 80.09 42.83 15.15 11.96 28.87 25.7 41.07 40.66-9.43 5.39-18.78 10.89-28.24 16.21-26.71-31.53-62.04-55.64-101.28-68.67M18.8 161.25C36.18 119 64.59 81.3 100.9 53.49c5.45 9.31 10.77 18.7 16.2 28.03-29.19 23.22-52.34 53.82-67.05 88.07-10.41-2.78-20.82-5.6-31.25-8.34m438.07 71.78c-4.19-33.44-17.16-65.7-37.17-92.8-19.85-27-46.58-48.91-76.99-62.99-32-14.92-68.02-20.93-103.14-17.48-21.52 2.08-42.69 7.7-62.39 16.61-35.83 16.1-66.64 43.08-87.43 76.4-18.07 28.79-28.53 62.29-30.03 96.26-1.79 36.78 6.89 74.01 24.88 106.16 17.42 31.33 43.43 57.82 74.45 75.79 27.28 15.9 58.41 25.11 89.95 26.62 37.21 1.93 74.92-6.84 107.38-25.16 34.49-19.31 63.01-49.09 80.78-84.4 17.9-35.22 24.75-75.85 19.71-115.01m-66.48 132.38c-17.18 20.3-38.01 38.11-62.64 48.65-6.67-19.97-13.29-40.07-17.29-60.77 7.95.59 15.98.82 23.91-.18 7.23-1.21 14.26-4.12 20.13-8.54 5.77-5.26 11.78-10.68 15.12-17.9 1.16-3.24 5.18-3.32 7.44-5.49 8.41-6.87 18.59-12.74 23.08-23.14 1.91-3.28 1.13-7.44 3.33-10.57 3.09-4.35 2.89-10.05 1.87-15.04-1.41-5.24-7.71-6.38-12.34-6.65-5.53-.68-11.28 2.28-16.5-.39-11.54-3.83-23.55-6.08-35.1-9.9-2.43-.82-4.56-2.26-6.64-3.73-.09-7.03-2.08-14.39-6.95-19.64-1.76-1.96-4.26-3.18-6.93-3.01-1.97-3.85-3.67-8.15-7.26-10.81-4.05-3.07-9.12-4.13-13.9-5.48 2.7-15.62 4.24-31.8.69-47.41-1.72-9.92-7.5-18.49-13.44-26.38-2.43-2.86-5.38-5.52-9.02-6.7-3.16-.92-6.18 1.21-8 3.62-12.22 16.65-22.4 35.49-25.3 56.19-.95 7.71-2.61 15.38-2.38 23.19-4.17 1.66-8.14 3.79-11.72 6.49-12.06-11.55-27.41-19.37-43.48-23.62-13.52-3.02-27.21-5.92-41.14-6-9.97-.09-20.01-.29-29.89 1.21-3.72 1.14-1.88 5.96-1.65 8.73 2.19 8.48 4.34 17.44 10.07 24.32 5.83 6.89 12.19 13.54 20.29 17.75 7.73 3.97 15.6 7.91 24.09 9.94 9.96 2.67 20.32 3.24 30.57 3.95-3.42 12.1-8.38 24.09-8.16 36.89.19 9.05 1.07 19.09 7.67 25.98 6.5 8.62 17.46 11.35 27.1 14.88 6.77 1.6 13.03 4.69 19.05 8.11 1.63 1.01 2.7 2.65 3.74 4.22 4.73 7.29 8.99 14.94 11.94 23.12 6.11 18.2 8.33 37.36 11.95 56.13-16.56.63-33.3.66-49.63-2.53-29.84-5.62-57.92-20.13-79.76-41.22-6.56-6.46-13.16-12.91-18.88-20.14-21.08-26.08-33.4-59.04-34.7-92.54-.25-15.36-.55-30.86 2.39-46.02 5.8-32.75 22.42-63.36 46.46-86.31 22.03-23.02 51.11-39.12 82.33-45.52 30.45-6.86 62.77-5.4 92.35 4.67 34.65 11.61 65.09 35.04 85.67 65.19 16 23.33 25.99 50.76 28.67 78.93 4.33 43.87-9.09 89.43-37.21 123.47M461.43 158c9.31-5.23 18.46-10.74 27.76-15.98 17.78 35.59 27.72 75.21 27.66 115.06.06 12.33-.83 24.65-2.44 36.88-10.44-2.71-20.85-5.54-31.26-8.34 5.55-43.48-2.22-88.39-21.72-127.62M0 251.64c.55-12.71 1.68-25.4 3.8-37.95 10.29 2.69 20.53 5.53 30.78 8.34-1.56 14.93-3.1 29.94-2.47 44.98.67 22.17 5.05 44.13 12.21 65.09 1.15 2.41-.57 4.73-2.77 5.64-8.28 4.32-15.97 9.68-24.35 13.79C6.79 324.39.97 295.55 0 266.5zm470.42 87.89c1.49-.83 3.13.14 4.62.46 8.58 2.68 17.45 4.36 25.99 7.15-10.11 28.7-25.63 55.5-45.34 78.68-14.77 17.37-31.95 32.64-50.64 45.68-5.37-9.23-10.71-18.48-15.92-27.8 11.58-8.83 22.94-18.05 32.97-28.66 19.87-20.61 35.54-45.18 46.15-71.75.62-1.3.97-2.86 2.17-3.76M42.6 400.27c9.08-5.58 18.36-10.82 27.55-16.21 22.72 33.94 54.62 61.62 91.56 79.09a5601 5601 0 0 0-8.34 31.48c-22.93-10.44-44.53-23.93-63.57-40.45-18.16-15.65-33.92-33.98-47.2-53.91m170.6 80.2c42.54 8.61 87.42 4.68 127.85-11.09 5.38 9.34 10.76 18.69 16.21 28-29.07 11.89-60.23 18.73-91.65 19.62h-13.98c-15.7-.6-31.36-2.36-46.75-5.51 2.74-10.35 5.63-20.66 8.32-31.02"/>
</svg>
