<svg xmlns="http://www.w3.org/2000/svg" version="1.1" viewBox="0 0 447 222">
  <path fill="#fff" d="M28.98 63.81c-.11-29.69 19-46.16 54.1-46.28 25.26-.09 29.77 16.33 29.77 22.3 0 11.43-16.27 23.55-16.27 23.55s.9 7.12 14.87 7.07 27.58-9.22 27.5-32.16C138.88 11.95 111.11-.1 83.66 0 60.69.08-.21 3.29 0 63.39c.2 53.38 101.56 58.09 101.64 92.27.14 37.12-41.75 47.11-55.93 47.11s-19.94-9.97-19.96-15.45c-.1-30.06 30-38.43 30-38.43 0-2.24-1.76-12.24-13.42-12.19-30.03.06-41.99 25.72-41.9 50.78.08 21.31 15.23 34.61 38.12 34.52 43.76-.16 93.11-21.38 92.93-68.51-.16-44.08-102.38-55.59-102.5-89.68"/>
  <path fill="#fff" d="M446.17 181.91c-.35-.84-1.33-.64-2.63.43-4.97 4.07-16.32 15.6-42.88 15.7-48.43.18-56.84-79.17-56.84-79.17s36.91-27.39 42.68-38.44-12.58-13.46-12.58-13.46-25.82 31.23-44.12 40.38c1.99-13.58 15.53-44.54 16.31-62.34s-21.57-13.46-25.13-11.76c0 7.77-19.74 78.34-26.93 117.12-4.23 6.73-10.28 14.42-15.7 14.44-3.14 0-4.29-5.78-4.32-14.05 0-11.49 6.36-29.89 6.32-41.08 0-7.74-3.58-8.2-6.66-8.19-.67 0-4.37.1-5.04.1-7.9 0-5.3-6.73-12.41-6.66-21.76.08-49.47 23.69-50.68 59.32-7.35 4.83-17.63 10.92-22.87 10.95-5.51 0-6.87-5.06-6.88-9.43 0-7.68 12.5-53.33 12.5-53.33s15.92-4.06 22.87-5.4c5.26-1.02 6.77-1.4 8.81-3.93 2.04-2.52 6.04-7.74 9.26-12.43 3.23-4.69.06-8.31-5.91-8.29-7.83 0-28.79 4.94-28.79 4.94s10.07-43.14 10.05-44.01c-.01-.87-1.13-1.33-2.83-1.32-3.81 0-10.62 2.04-14.98 3.59-6.67 2.37-12.1 10.49-13.19 14.27s-8.63 33.38-8.63 33.38-40.37 13.85-45.88 15.93c-.34.11-.56.43-.56.79s4.62 17.95 14.08 17.88c6.77 0 26.67-8.1 26.67-8.1s-10.22 40.38-10.16 53.84c0 8.64 4.1 18.75 21.07 18.7 15.8 0 29.62-8.11 37.36-13.75 4.23 10.64 14.23 13.56 21.06 13.54 15.3 0 27.08-12.14 28.6-13.76 1.99 4.67 6.67 13.63 17.37 13.59 6.05 0 12.31-6.73 16.93-13.26-.09 1.36-.07 2.72.06 4.07 1.85 16.74 26.85 6.9 28.21 4.57.85-12.1.32-36.85 5.18-52.12 6.45 52.11 30.94 87.16 74.97 87.01 24.61-.09 37.24-7.12 42.46-12.92a17.73 17.73 0 0 0 3.8-17.32Zm-211.22-17.18c-21.14.08 6.47-54.38 24.5-54.45.02 7.02-.37 54.37-24.5 54.45"/>
  <path fill="#fff" d="M406.55 181.42c19.08-.07 33.85-12.55 36.56-16.61 3.5-5.28-4.06-13.26-6.47-13.12-6.03 5.73-12.32 12.66-26.46 12.71-16.65.07-12.88-18.14-12.88-18.14s32.04 4.12 44.91-18.78c4.12-7.32 4.29-17.45 2.63-21.82-1.66-4.36-10.98-12.44-25.81-11.22-18.21 1.53-41.17 20.4-46.21 43.07-4.05 18.24 3.61 44.01 33.72 43.9Zm20.33-76.39h-.02.03-.02c2.98-.08 2.71 4.82 1.91 9.95-1.13 6.97-10.75 24.68-29.13 23.98 1.27-10.3 14.93-33.51 27.22-33.93Z"/>
</svg>
