<svg xmlns="http://www.w3.org/2000/svg" viewBox="0 0 761.013 414.693">
  <g data-name="Group 119171">
    <path fill="#0a0138" d="m42.013 158 601-158v175L86.954 319.288V204.666H42.013Z" data-name="Path 360441"/>
    <path fill="#0a0138" d="m160.013 265 601-165v174L225.608 414.693l1.756-112.471h-127.23Z" data-name="Path 360442"/>
    <g fill="#45ff03" data-name="Group 119170">
      <path d="M132.888 279.047a22.28 22.28 0 0 1-12.857-9.73q-4.582-7.243-4.579-18.34V177.92H55.063l62.453-14.84.05-.014 25.009-6.6a1.69 1.69 0 0 1 1.5.223 1.56 1.56 0 0 1 .616 1.334v88.059q0 4.227 2.024 6.335a5.12 5.12 0 0 0 5.373 1.223 8.96 8.96 0 0 0 5.372-4.057 13.5 13.5 0 0 0 2.025-7.4v-88.062a2.62 2.62 0 0 1 .617-1.66 2.77 2.77 0 0 1 1.5-1.01l25.009-6.6a1.7 1.7 0 0 1 1.5.219 1.57 1.57 0 0 1 .616 1.337v85.24a47.85 47.85 0 0 1-17.437 37.27 49.5 49.5 0 0 1-19.2 9.731 43 43 0 0 1-10.968 1.548 28.5 28.5 0 0 1-8.234-1.149" data-name="Path 360440"/>
      <path d="M249.567 128.858a2.77 2.77 0 0 1 1.5-1.01l24.657-6.507a1.7 1.7 0 0 1 1.5.223 1.56 1.56 0 0 1 .616 1.335v119.054a2.64 2.64 0 0 1-.616 1.66 2.8 2.8 0 0 1-1.5 1.01l-28 7.387q-1.938.514-2.466-1.108l-17.442-56.689a.59.59 0 0 0-.615-.453q-.442.03-.442.733l.352 60.843a2.63 2.63 0 0 1-.615 1.66 2.8 2.8 0 0 1-1.5 1.012l-24.657 6.5a1.67 1.67 0 0 1-1.5-.221 1.55 1.55 0 0 1-.616-1.335V143.9a2.64 2.64 0 0 1 .616-1.662 2.8 2.8 0 0 1 1.5-1.01l27.651-7.295c1.29-.339 2.115.032 2.466 1.11l17.612 57a.476.476 0 0 0 .618.367q.438-.115.439-.82l-.173-61.069a2.62 2.62 0 0 1 .615-1.66" data-name="Path 2"/>
      <path d="M289.015 240.501a1.54 1.54 0 0 1-.616-1.335V120.111a2.62 2.62 0 0 1 .616-1.66 2.8 2.8 0 0 1 1.5-1.012l25.009-6.6a1.7 1.7 0 0 1 1.5.219 1.56 1.56 0 0 1 .616 1.335v95.286c0 .589.291.8.881.648l35.927-9.478a1.7 1.7 0 0 1 1.5.221 1.56 1.56 0 0 1 .616 1.335v20.782a2.63 2.63 0 0 1-.616 1.66 2.8 2.8 0 0 1-1.5 1.01l-63.929 16.866a1.67 1.67 0 0 1-1.5-.221" data-name="Path 3"/>
      <path d="M364.216 220.661a1.55 1.55 0 0 1-.616-1.335V106.074l-34.815.227 55.314-13.553 6.623-1.747a1.69 1.69 0 0 1 1.5.221 1.56 1.56 0 0 1 .615 1.337v119.054a2.63 2.63 0 0 1-.615 1.66 2.8 2.8 0 0 1-1.5 1.01l-25.009 6.6a2.2 2.2 0 0 1-.57.079 1.5 1.5 0 0 1-.927-.301" data-name="Path 360438"/>
      <path d="m463.283 71.858 24.475-6.457a1.7 1.7 0 0 1 1.5.219 1.56 1.56 0 0 1 .615 1.337v119.054a2.62 2.62 0 0 1-.615 1.66 2.8 2.8 0 0 1-1.5 1.012l-25.007 6.6a1.67 1.67 0 0 1-1.5-.223 1.55 1.55 0 0 1-.615-1.335V118.17q-.002-.701-.354-.7c-.352.001-.469.211-.7.624l-12.324 24.743c-.472 1.063-.821 1.625-1.057 1.688s-.647-.3-1.233-1.084l-12.33-18.237q-.356-.43-.7-.341c-.344.089-.352.33-.352.8v75.729a2.64 2.64 0 0 1-.618 1.662 2.77 2.77 0 0 1-1.5 1.01l-25.009 6.6a1.67 1.67 0 0 1-1.5-.221 1.54 1.54 0 0 1-.616-1.335V90.048a2.63 2.63 0 0 1 .616-1.66 2.8 2.8 0 0 1 1.5-1.01l24.657-6.505a2.29 2.29 0 0 1 2.642.712l14.088 21.819q.531.567 1.058-.279l13.737-29.162a3.73 3.73 0 0 1 2.642-2.105" data-name="Path 5"/>
      <path d="M500.354 184.747a1.54 1.54 0 0 1-.618-1.334V64.355a2.63 2.63 0 0 1 .618-1.66 2.77 2.77 0 0 1 1.5-1.01l25.009-6.6a1.7 1.7 0 0 1 1.5.219 1.56 1.56 0 0 1 .615 1.337v119.056a2.63 2.63 0 0 1-.615 1.66 2.8 2.8 0 0 1-1.5 1.012l-25.009 6.6a1.68 1.68 0 0 1-1.5-.223" data-name="Path 6"/>
      <path d="M614.298 32.635a1.55 1.55 0 0 1 .618 1.334V54.75a2.64 2.64 0 0 1-.618 1.662 2.78 2.78 0 0 1-1.5 1.009l-21.837 5.762a1.057 1.057 0 0 0-.881 1.113v95.28a2.63 2.63 0 0 1-.616 1.66 2.8 2.8 0 0 1-1.5 1.01l-25.009 6.6a1.67 1.67 0 0 1-1.5-.221 1.55 1.55 0 0 1-.616-1.335V72.008q0-.879-.882-.648l-20.956 5.53a1.67 1.67 0 0 1-1.5-.221 1.55 1.55 0 0 1-.607-1.334V54.552a2.63 2.63 0 0 1 .618-1.66 2.8 2.8 0 0 1 1.5-1.01l73.789-19.47a1.69 1.69 0 0 1 1.5.223" data-name="Path 7"/>
      <path d="M265.502 371.189q-10.039-7.215-10.039-23.594v-54.069a46.7 46.7 0 0 1 2.7-16.026h-90.276l122.947-29.216q.713-.206 1.439-.4 16.73-4.414 26.858 2.6t10.126 23.574v1.586a2.64 2.64 0 0 1-.615 1.66 2.8 2.8 0 0 1-1.5 1.012l-25.009 7.653q-2.113.56-2.113-1.554v-4.756q0-4.049-2.113-5.871t-5.634-.89a9.6 9.6 0 0 0-5.461 3.817 11.64 11.64 0 0 0-2.113 6.987v58.645c0 2.587.7 4.482 2.113 5.7a5.69 5.69 0 0 0 5.461.937 9.85 9.85 0 0 0 5.634-3.863 11.36 11.36 0 0 0 2.113-6.811v-5.113a2.63 2.63 0 0 1 .616-1.659 2.8 2.8 0 0 1 1.5-1.01l25.007-5.544a1.69 1.69 0 0 1 1.5.221 1.56 1.56 0 0 1 .615 1.334v1.585a44.7 44.7 0 0 1-10.125 28.914q-10.134 12.546-26.86 16.946a46.3 46.3 0 0 1-11.744 1.677 25.06 25.06 0 0 1-15.027-4.472" data-name="Path 360439"/>
      <path d="m386.848 345.692-2.291-14.719q.001-.882-1.057-.6l-19.019 5.014q-1.057.279-1.057 1.161l-2.113 15.879a2.744 2.744 0 0 1-2.291 2.543l-25.009 6.6q-2.291.605-1.761-1.825l25.539-125.793a2.94 2.94 0 0 1 2.288-2.541l28.707-7.575q1.938-.509 2.29 1.334l25.361 112.367.176.656q0 1.585-1.936 2.1l-25.537 6.737c-1.409.371-2.174-.07-2.29-1.334m-18.843-33.778 11.8-3.112a.96.96 0 0 0 .7-1.066l-6.34-38.483c-.118-.435-.295-.628-.53-.565s-.413.347-.528.844l-5.81 41.689c0 .591.232.818.7.695" data-name="Path 9"/>
      <path d="M434.4 332.353a21.08 21.08 0 0 1-12.594-8.3q-4.489-6.3-4.489-15.812v-5.46a2.63 2.63 0 0 1 .616-1.659 2.8 2.8 0 0 1 1.5-1.01l24.657-6.505a1.68 1.68 0 0 1 1.5.221 1.56 1.56 0 0 1 .618 1.334v4.051q0 4.227 2.025 6.158a5.14 5.14 0 0 0 5.2 1.1 9 9 0 0 0 5.2-3.748 11.3 11.3 0 0 0 2.025-6.609 7.74 7.74 0 0 0-3.172-6.473q-3.168-2.421-12.679-6.782a126 126 0 0 1-14.442-7.549 30.96 30.96 0 0 1-9.688-9.949q-4.052-6.412-4.049-16.28a41.7 41.7 0 0 1 4.489-18.971 44.8 44.8 0 0 1 12.665-15.329 51.5 51.5 0 0 1 18.758-9.174q10.74-2.834 18.933-.68a21.27 21.27 0 0 1 12.679 8.808q4.493 6.652 4.493 16.866v4.228a2.63 2.63 0 0 1-.618 1.659 2.8 2.8 0 0 1-1.5 1.012l-24.48 6.457a1.67 1.67 0 0 1-1.5-.221 1.54 1.54 0 0 1-.618-1.334v-4.931q0-3.871-2.113-5.783a5.36 5.36 0 0 0-5.282-1.071 8.58 8.58 0 0 0-5.107 3.814 12.6 12.6 0 0 0-1.937 7.026 9.2 9.2 0 0 0 2.994 7.136q2.992 2.735 12.152 7.01a168 168 0 0 1 16.731 8.971 26.8 26.8 0 0 1 8.806 9.036q3.17 5.418 3.17 13.87a42.18 42.18 0 0 1-9.952 27.809q-9.952 11.962-26.15 16.233-10.747 2.834-18.846.833" data-name="Path 10"/>
      <path d="M497.712 317.765a1.55 1.55 0 0 1-.616-1.335V197.375a2.63 2.63 0 0 1 .616-1.66 2.8 2.8 0 0 1 1.5-1.012l25.007-6.6a1.69 1.69 0 0 1 1.5.221 1.56 1.56 0 0 1 .615 1.335v119.058a2.63 2.63 0 0 1-.615 1.66 2.8 2.8 0 0 1-1.5 1.012l-25.007 6.6a1.69 1.69 0 0 1-1.5-.221" data-name="Path 11"/>
      <path d="M588.06 171.879a2.8 2.8 0 0 1 1.5-1.01l24.657-6.505a1.69 1.69 0 0 1 1.5.221 1.56 1.56 0 0 1 .616 1.334v119.053a2.64 2.64 0 0 1-.616 1.66 2.8 2.8 0 0 1-1.5 1.012l-28 7.387q-1.941.512-2.466-1.11l-17.446-56.688a.59.59 0 0 0-.615-.453q-.441.03-.44.732l.355 60.844a2.62 2.62 0 0 1-.616 1.659 2.8 2.8 0 0 1-1.5 1.012l-24.655 6.507a1.68 1.68 0 0 1-1.5-.223 1.55 1.55 0 0 1-.615-1.335V186.921a2.64 2.64 0 0 1 .615-1.662 2.8 2.8 0 0 1 1.5-1.01l27.651-7.295q1.935-.508 2.466 1.11l17.61 57a.477.477 0 0 0 .618.367q.438-.115.44-.82l-.176-61.067a2.63 2.63 0 0 1 .616-1.66" data-name="Path 12"/>
      <path d="M635.61 273.547q-10.13-7.188-10.127-23.922v-53.189a45.28 45.28 0 0 1 10.127-29.177q10.125-12.62 27.21-17.13 16.907-4.46 27.209 2.773t10.3 23.787v53.188a44.87 44.87 0 0 1-10.3 29.313q-10.3 12.582-27.209 17.04-17.085 4.508-27.21-2.683m33.286-26.658a14.24 14.24 0 0 0 2.2-8.066v-55.652q0-4.758-2.2-6.9t-6.076-1.127a9.84 9.84 0 0 0-5.988 4.309 14.56 14.56 0 0 0-2.113 8.042v55.653q0 4.758 2.113 6.928t5.988 1.15a10.2 10.2 0 0 0 6.076-4.333" data-name="Path 13"/>
      <path d="M710.809 257.672q-4.316-3.177-4.313-9.869a18.75 18.75 0 0 1 4.313-12.059 20.5 20.5 0 0 1 11.009-7.13q6.689-1.765 10.919 1.346t4.225 9.8a19.1 19.1 0 0 1-4.313 12.144 20.03 20.03 0 0 1-10.831 7.171q-6.7 1.768-11.009-1.409m-.176-39.052a1.54 1.54 0 0 1-.615-1.335l-3.17-75.246a2.54 2.54 0 0 1 2.113-2.672l25.009-6.6q2.113-.56 2.113 1.556l-3 76.871a2.64 2.64 0 0 1-.616 1.662 2.78 2.78 0 0 1-1.5 1.01l-18.843 4.973a1.68 1.68 0 0 1-1.5-.223" data-name="Path 14"/>
    </g>
    <path fill="#0a0138" d="m68.143 151.748-25.94 53.055L0 167.754Z" data-name="Path 360443"/>
  </g>
</svg>
