<svg xmlns="http://www.w3.org/2000/svg" version="1.1" viewBox="0 0 1200 550">
  <path fill="none" d="M9 0h1200v550H9z"/>
  <path fill="#123dff" d="M1250.8-66.7H-50.8V617h1301.6z"/>
  <path fill="#001ea4" d="M1353 249.4H982.4l-48.3 76.9h370.6z"/>
  <path fill="#dc30f8" d="M207.4 158.1H27.9v3.2h179.9v-3.2zM1289.6 181h-179.9v3.2h179.9z"/>
  <path fill="#fff" d="M232.1 173.9h-97.7l1.1-1.8h97.7z"/>
  <path fill="#dc30f8" d="M309.3 178c-5.6 0-10.2-4.6-10.2-10.2s4.6-10.2 10.2-10.2 10.2 4.6 10.2 10.2-4.6 10.2-10.2 10.2m0-16.9c-3.9 0-6.7 3.2-6.7 6.7s3.2 6.7 6.7 6.7 6.7-3.2 6.7-6.7-2.8-6.7-6.7-6.7"/>
  <path fill="#001ea4" d="M339.3 249.4h-471.9l-48.3 76.9H291z"/>
  <path fill="#71eeff" d="M56.1 209.2h-96l19.8-21.9h95.9L56 209.2Z"/>
  <path fill="#fff" d="M224 216.6h-70.2l14.5-15.9h70.2z"/>
  <path fill="#dc30f8" d="M270.5 300.9H152.7v3.9h117.5v-3.9h.4Z"/>
  <path fill="#fff" d="M122 271.3h125.9l-1.4 2.1H120.6z"/>
  <path fill="#dc30f8" d="m898.4 408.2-13.4 7.1c-.7.4-1.8 0-2.1-.7l-7.1-13.4c-.4-.7 0-1.8.7-2.1l13.4-7.1c.7-.4 1.8 0 2.1.7l7.1 13.4c0 1.1 0 2.1-.7 2.1m-13 3.5 10.6-5.6-5.6-10.6-10.6 5.6 5.6 10.2zm-621.8.3-13.4 7.1c-.7.4-1.8 0-2.1-.7L241 405c-.4-.7 0-1.8.7-2.1l13.4-7.1c.7-.4 1.8 0 2.1.7l7.1 13.4c0 1.1 0 2.1-.7 2.1m-13.1 3.1 10.6-5.6-5.6-10.6-10.6 5.6 5.6 10.2zm538.5-191c-7.4 0-13.1-6-13.1-13.1s6-13.1 13.1-13.1 13.1 6 13.1 13.1-5.6 13.1-13.1 13.1m0-22.3c-4.9 0-8.5 3.9-8.5 8.5s3.9 8.5 8.5 8.5 8.5-3.9 8.5-8.5-3.9-8.5-8.5-8.5m78 56.4c-4.9 0-8.8-3.9-8.8-8.8s3.9-8.8 8.8-8.8 8.8 3.9 8.8 8.8-3.9 8.8-8.8 8.8m0-14.8c-3.2 0-5.6 2.8-5.6 5.6s2.8 5.6 5.6 5.6 5.6-2.8 5.6-5.6-2.5-5.6-5.6-5.6M88.2 338.3h152.4L217.7 375H65.3zm988.3-22.9h152.4l-22.9 36.7h-152.4z"/>
  <path fill="#fff" d="M244.3 350.5h62.1l-9.5 14.8h-62.1z"/>
  <path fill="#71eeff" d="M1119.2 208.9h62.1l-9.5 14.8h-62.1z"/>
  <path fill="#13141e" d="M246.6 233.9H-12.7l1.4-2.1H248z"/>
  <path fill="#fff" d="M935.5 366.9h-60l12.3-19.4h60zm88.2-162.8h-95.9l19.8-21.9h95.9l-19.7 21.9Z"/>
  <path fill="#dc30f8" d="M1096.3 293.5H978.5v3.9H1096v-3.9h.4Z"/>
  <path fill="#fff" d="M955.9 266.7h125.9l-1.4 2.1H954.5z"/>
  <path fill="#13141e" d="M1320.6 173.2h-259.2l1.4-2.1h259.3l-1.4 2.1Z"/>
  <circle cx="600" cy="279.7" r="98.9" fill="#71eeff"/>
  <path fill="#bffdff" d="M600 181.8c54.4 0 98.6 44 98.8 98.4v-.5c0-54.6-44.3-98.9-98.9-98.9S501 225.1 501 279.7v.5c.3-54.4 44.4-98.4 98.8-98.4Z"/>
  <circle cx="600" cy="279.7" r="90" fill="#001ea4"/>
  <path fill="#48fcff" d="M600 190.8c49.5 0 89.7 40 90 89.4v-.6c0-49.7-40.3-90-90-90s-90 40.3-90 90v.6c.3-49.4 40.5-89.4 90-89.4"/>
  <path fill="none" stroke="#00fcff" stroke-miterlimit="10" stroke-width=".3" d="m610.6 202.6 2.1 14.6H627l23.3 6.5 20.8 29.2-8.1 22.5 18.1 11.8-15.9 8.9-.7 21.5-15.8 18.6-20.3 17.3-21.9 8.8 6.2-10.2"/>
  <path fill="none" stroke="#00fcff" stroke-miterlimit="10" stroke-width=".3" d="m628.4 353.5 19.5 8.8.8-25.3 26.8-2.3-11-17.1-23-30.4 23.7 8.9-2.2-19.9-12.7-52.5-18.9 18.5-5.1-25 11.4-24-26.4 9.4 50.9 9 8.9 41.3 10.7 33.5 8.2 26.8-61.6-15.6-15.7 53.7 17.3 15.3 33.7-14.5-49.4-24.3 22.8-18.7 8.8 15.7"/>
  <circle cx="671.1" cy="252.9" r="4.4" fill="none" stroke="#00fcff" stroke-miterlimit="10" stroke-width=".3"/>
  <circle cx="671.1" cy="252.9" r="3" fill="#00fbde"/>
  <circle cx="671.1" cy="252.9" r="1.6" fill="#ccfdff"/>
  <circle cx="664.5" cy="317.6" r="4.4" fill="none" stroke="#00fcff" stroke-miterlimit="10" stroke-width=".3"/>
  <circle cx="664.5" cy="317.6" r="3" fill="#00fbde"/>
  <circle cx="664.5" cy="317.6" r="1.6" fill="#ccfdff"/>
  <circle cx="650.3" cy="223.7" r="4.4" fill="none" stroke="#00fcff" stroke-miterlimit="10" stroke-width=".3"/>
  <circle cx="650.3" cy="223.7" r="3" fill="#00fbde"/>
  <circle cx="650.3" cy="223.7" r="1.6" fill="#ccfdff"/>
  <circle cx="612.7" cy="217.2" r="4.4" fill="none" stroke="#00fcff" stroke-miterlimit="10" stroke-width=".3"/>
  <circle cx="612.7" cy="217.2" r="3" fill="#00fbde"/>
  <circle cx="612.7" cy="217.2" r="1.6" fill="#ccfdff"/>
  <circle cx="628.4" cy="353.5" r="4.4" fill="none" stroke="#00fcff" stroke-miterlimit="10" stroke-width=".3"/>
  <circle cx="628.4" cy="353.5" r="3" fill="#00fbde"/>
  <circle cx="628.4" cy="353.5" r="1.6" fill="#ccfdff"/>
  <circle cx="606.5" cy="362.3" r="4.4" fill="none" stroke="#00fcff" stroke-miterlimit="10" stroke-width=".3"/>
  <circle cx="606.5" cy="362.3" r="3" fill="#00fbde"/>
  <circle cx="606.5" cy="362.3" r="1.6" fill="#ccfdff"/>
  <circle cx="665.2" cy="295.3" r="2.2" fill="none" stroke="#00fcff" stroke-miterlimit="10" stroke-width=".3"/>
  <circle cx="665.2" cy="295.3" r="1.5" fill="#00fbde"/>
  <circle cx="665.2" cy="295.3" r=".8" fill="#ccfdff"/>
  <circle cx="681.1" cy="286.4" r="2.2" fill="none" stroke="#00fcff" stroke-miterlimit="10" stroke-width=".3"/>
  <circle cx="681.1" cy="286.4" r="1.5" fill="#00fbde"/>
  <circle cx="681.1" cy="286.4" r=".8" fill="#ccfdff"/>
  <circle cx="626.3" cy="217.2" r="2.2" fill="none" stroke="#00fcff" stroke-miterlimit="10" stroke-width=".3"/>
  <circle cx="626.3" cy="217.2" r="1.5" fill="#00fbde"/>
  <circle cx="626.3" cy="217.2" r=".8" fill="#ccfdff"/>
  <circle cx="610.6" cy="202.6" r="2.2" fill="none" stroke="#00fcff" stroke-miterlimit="10" stroke-width=".3"/>
  <circle cx="610.6" cy="202.6" r="1.5" fill="#00fbde"/>
  <circle cx="610.6" cy="202.6" r=".8" fill="#ccfdff"/>
  <circle cx="663" cy="275.4" r="2.2" fill="none" stroke="#00fcff" stroke-miterlimit="10" stroke-width=".3"/>
  <circle cx="663" cy="275.4" r="1.5" fill="#00fbde"/>
  <circle cx="663" cy="275.4" r=".8" fill="#ccfdff"/>
  <circle cx="648.7" cy="336.2" r="2.2" fill="none" stroke="#00fcff" stroke-miterlimit="10" stroke-width=".3"/>
  <circle cx="648.7" cy="336.2" r="1.5" fill="#00fbde"/>
  <circle cx="648.7" cy="336.2" r=".8" fill="#ccfdff"/>
  <circle cx="612.7" cy="351.3" r="2.2" fill="none" stroke="#00fcff" stroke-miterlimit="10" stroke-width=".3"/>
  <circle cx="612.7" cy="351.3" r="1.5" fill="#00fbde"/>
  <circle cx="612.7" cy="351.3" r=".8" fill="#ccfdff"/>
  <path fill="none" stroke="#00fcff" stroke-miterlimit="10" stroke-width=".3" d="m589 201.4-2.2 14.6h-14.3l-23.2 6.6-20.8 29.1 8.1 22.5-18.1 11.8 15.9 8.9.7 21.5 15.7 18.6 20.3 17.3 21.9 8.8-6.2-10.2"/>
  <path fill="none" stroke="#00fcff" stroke-miterlimit="10" stroke-width=".3" d="m571.1 352.3-19.5 8.8-.8-25.3-26.7-2.3 11-17.1L558 286l-23.6 8.9 2.2-19.9 12.7-52.4 18.8 18.4 5.2-25-11.4-24 26.3 9.4-50.8 9-8.9 41.3-10.8 33.6-8.1 26.7 61.5-15.6 15.7 53.7-17.2 15.3-33.7-14.5 49.3-24.3-22.7-18.7-8.9 15.7"/>
  <circle cx="528.5" cy="251.7" r="4.4" fill="none" stroke="#00fcff" stroke-miterlimit="10" stroke-width=".3"/>
  <circle cx="528.5" cy="251.7" r="3" fill="#00fbde"/>
  <circle cx="528.5" cy="251.7" r="1.6" fill="#ccfdff"/>
  <circle cx="535.1" cy="316.4" r="4.4" fill="none" stroke="#00fcff" stroke-miterlimit="10" stroke-width=".3"/>
  <circle cx="535.1" cy="316.4" r="3" fill="#00fbde"/>
  <circle cx="535.1" cy="316.4" r="1.6" fill="#ccfdff"/>
  <circle cx="549.3" cy="222.6" r="4.4" fill="none" stroke="#00fcff" stroke-miterlimit="10" stroke-width=".3"/>
  <circle cx="549.3" cy="222.6" r="3" fill="#00fbde"/>
  <circle cx="549.3" cy="222.6" r="1.6" fill="#ccfdff"/>
  <circle cx="586.8" cy="216" r="4.4" fill="none" stroke="#00fcff" stroke-miterlimit="10" stroke-width=".3"/>
  <circle cx="586.8" cy="216" r="3" fill="#00fbde"/>
  <circle cx="586.8" cy="216" r="1.6" fill="#ccfdff"/>
  <circle cx="571.1" cy="352.3" r="4.4" fill="none" stroke="#00fcff" stroke-miterlimit="10" stroke-width=".3"/>
  <circle cx="571.1" cy="352.3" r="3" fill="#00fbde"/>
  <circle cx="571.1" cy="352.3" r="1.6" fill="#ccfdff"/>
  <circle cx="593" cy="361.1" r="4.4" fill="none" stroke="#00fcff" stroke-miterlimit="10" stroke-width=".3"/>
  <circle cx="593" cy="361.1" r="3" fill="#00fbde"/>
  <circle cx="593" cy="361.1" r="1.6" fill="#ccfdff"/>
  <circle cx="534.4" cy="294.1" r="2.2" fill="none" stroke="#00fcff" stroke-miterlimit="10" stroke-width=".3"/>
  <circle cx="534.4" cy="294.1" r="1.5" fill="#00fbde"/>
  <circle cx="534.4" cy="294.1" r=".8" fill="#ccfdff"/>
  <circle cx="518.5" cy="285.3" r="2.2" fill="none" stroke="#00fcff" stroke-miterlimit="10" stroke-width=".3"/>
  <circle cx="518.5" cy="285.3" r="1.5" fill="#00fbde"/>
  <circle cx="518.5" cy="285.3" r=".8" fill="#ccfdff"/>
  <circle cx="573.3" cy="216" r="2.2" fill="none" stroke="#00fcff" stroke-miterlimit="10" stroke-width=".3"/>
  <circle cx="573.3" cy="216" r="1.5" fill="#00fbde"/>
  <circle cx="573.3" cy="216" r=".8" fill="#ccfdff"/>
  <circle cx="589" cy="201.4" r="2.2" fill="none" stroke="#00fcff" stroke-miterlimit="10" stroke-width=".3"/>
  <circle cx="589" cy="201.4" r="1.5" fill="#00fbde"/>
  <circle cx="589" cy="201.4" r=".8" fill="#ccfdff"/>
  <circle cx="536.6" cy="274.2" r="2.2" fill="none" stroke="#00fcff" stroke-miterlimit="10" stroke-width=".3"/>
  <circle cx="536.6" cy="274.2" r="1.5" fill="#00fbde"/>
  <circle cx="536.6" cy="274.2" r=".8" fill="#ccfdff"/>
  <circle cx="550.8" cy="335" r="2.2" fill="none" stroke="#00fcff" stroke-miterlimit="10" stroke-width=".3"/>
  <circle cx="550.8" cy="335" r="1.5" fill="#00fbde"/>
  <circle cx="550.8" cy="335" r=".8" fill="#ccfdff"/>
  <circle cx="586.8" cy="350.1" r="2.2" fill="none" stroke="#00fcff" stroke-miterlimit="10" stroke-width=".3"/>
  <circle cx="586.8" cy="350.1" r="1.5" fill="#00fbde"/>
  <circle cx="586.8" cy="350.1" r=".8" fill="#ccfdff"/>
  <path fill="#71eeff" d="m648.8 240.7-47-18.4c-.2 0-.4-.1-.6-.2-.2 0-.3-.1-.5-.1h-1.2c-.2 0-.3 0-.5.1-.2 0-.4 0-.6.2l-47 18.4c-1.9.7-3.1 2.5-3.1 4.6v43c6.1 47.5 50.3 58.1 50.7 58.2h.1c.3 0 .6.1 1 .1s.7 0 1-.1h.1c.4-.1 44.7-10.7 50.7-58.2v-43c0-2-1.2-3.8-3.1-4.6"/>
  <path fill="#92fcff" d="m647.4 244.2-47-18.4q-.45-.15-.9 0l-47 18.4c-.5.2-.8.6-.8 1.1V288c5.7 45 47.5 55 47.9 55.1h.6c.4 0 42.1-10.1 47.9-55.1v-42.7c0-.5-.3-.9-.8-1.1Z"/>
  <path fill="#00e6d4" d="m647.4 244.1-47-18.4q-.45-.15-.9 0l-47 18.4c-.5.2-.8.6-.8 1.1v42.6c5.7 44.9 47.5 54.9 47.9 55h.6c.4 0 42.1-10.1 47.9-55v-42.6c0-.5-.3-.9-.8-1.1Z"/>
  <path fill="#fff" d="m648.8 240.7-47-18.4c-.2 0-.4-.1-.6-.2-.2 0-.3-.1-.5-.1h-1.2c-.2 0-.3 0-.5.1-.2 0-.4 0-.6.2l-47 18.4c-1.9.7-3.1 2.5-3.1 4.6v.4c0-2 1.2-3.8 3.1-4.6l47-18.4c.2 0 .4-.1.6-.2.2 0 .3-.1.5-.1h1.2c.2 0 .3 0 .5.1.2 0 .4 0 .6.2l47 18.4c1.9.7 3.1 2.5 3.1 4.6v-.4c0-2-1.2-3.8-3.1-4.6"/>
  <path fill="#001ea4" d="m600 228.1-45.9 18v41.5c5.6 43.6 45.9 52.8 45.9 52.8s40.3-9.2 45.9-52.8v-41.5z"/>
  <path fill="#71eeff" d="M615.5 279.6c3.7-3.2 6.1-8 6.1-13.4 0-9.8-7.9-17.7-17.7-17.7h-.1v-3.9h-8.9v3.9h-3.4v-3.9h-8.9v3.9h-4.3v8.9h4.3V275h-4.3v9.1h4.3v17.6h-4.3v8.9h4.3v4.2h8.9v-4.2h3.4v4.2h8.9v-4.2h.1c9.8 0 17.7-7.9 17.7-17.7s-2.4-10.1-6.1-13.4Zm-23.9-22.2H604c4.8 0 8.8 3.9 8.8 8.8s-3.9 8.8-8.8 8.8h-12.4zm12.4 44.3h-12.4v-17.6H604c4.8 0 8.8 3.9 8.8 8.8s-3.9 8.8-8.8 8.8"/>
  <path fill="#00d7d4" d="M578.4 283.9v.2h4.3v17.6h-4.3v8.9h4.3v4.2h8.9v-4.2h3.4v4.2h8.9v-4.2h.1c9.8 0 17.7-7.9 17.7-17.7s-2.3-10-6-13.2h-37.3zm13.2.2H604c4.8 0 8.8 3.9 8.8 8.8s-3.9 8.8-8.8 8.8h-12.4z"/>
  <path fill="#fff" d="M604 275.4c4.8 0 8.8-3.9 8.8-8.8v-.2c-.1 4.8-4 8.6-8.8 8.6h-12.4v.4zm-12.4-26.9h3.4v.4h-3.4zm12.2.4h.1c9.7 0 17.6 7.8 17.7 17.5v-.2c0-9.8-7.9-17.7-17.7-17.7h-.1zm8.9 44.4v-.2c-.1 4.8-4 8.6-8.8 8.6h-12.4v.4h12.4c4.8 0 8.8-3.9 8.8-8.8m-17.8-48.7h8.9v.4h-8.9zm-12.2 0h8.9v.4h-8.9zm33 35.2-.2.2c3.7 3.2 6 7.9 6.1 13.2v-.2c0-5.2-2.3-9.9-5.9-13.2m-37.3 21.9h4.3v.4h-4.3zm4.3-26.7h-4.3v.4h4.3zm-4.3-26.5h4.3v.4h-4.3z"/>
  <g fill="#fff">
    <path d="M673.5 201.3c.6-.5 1.2-1 1.8-1.6-19.7-18.5-46.1-29.9-75.2-29.9s-3.3 0-4.9.1v2.4c1.6 0 3.2-.1 4.9-.1 28.4 0 54.2 11.1 73.4 29.1m24.4 28.6q-4.65-9-10.8-17.1c-.6.5-1.2 1-1.8 1.6 4 5.2 7.5 10.8 10.5 16.6.7-.4 1.4-.8 2.1-1.1m4.6 17.6c2.4 7.6 4 15.6 4.6 23.9h2.4c-.7-8.7-2.3-17.1-4.9-25l-2.1 1.2Zm-203.8-3.7c-.7-.4-1.4-.8-2.1-1.3-4.2 11.6-6.5 24.1-6.5 37.2s4.4 35.2 12.2 50.3c.7-.4 1.3-.9 2-1.3-7.6-14.7-11.8-31.4-11.8-49s2.2-24.7 6.2-35.9m5.3-17.5c.7.4 1.3.8 2 1.2 14.8-26.7 40.7-46.4 71.4-53v-2.4c-31.5 6.6-58.1 26.8-73.4 54.2m71.2 160.4c.2-.8.5-1.5.7-2.3-25.3-5.8-47.1-20.5-62.2-40.7-.7.4-1.3.9-2 1.3 15.3 20.6 37.6 35.7 63.4 41.6Zm82.4-16.3c-16.6 10.6-36.4 16.7-57.5 16.7s-4.3 0-6.4-.2c-.2.8-.5 1.6-.7 2.3 2.4.2 4.7.2 7.1.2 21.6 0 41.7-6.2 58.7-17-.4-.7-.8-1.4-1.1-2.1Zm15.3-8.6c20.4-18.2 34.1-43.8 36.5-72.7H707c-2.4 27.9-15.6 52.8-35.3 70.5l1.2 2.1ZM696 181.3l.4-.4c-24.9-24.3-58.9-39.3-96.4-39.3h-4.9v.6h4.9c37.3 0 71.2 14.9 96 39.1m34.2 52.3c-5.1-14.4-12.6-27.7-21.9-39.5l-.4.4c17 21.4 27.7 48 29.4 76.9h.6c-.7-11.9-3-23.4-6.5-34.3-.6-1.1-1-2.3-1.2-3.5m-250.5-21.7c.2 0 .3.2.5.3 20.1-35.5 55.5-61.2 97.2-68.2v-.6c-41.9 6.9-77.5 32.8-97.7 68.5m-7.2 16.2c-.2-.1-.3-.2-.5-.3-6.5 16-10.1 33.5-10.1 51.8s6.4 47.4 17.6 67.3c.1-.2.3-.3.4-.5-11-19.8-17.4-42.6-17.4-66.8s3.6-35.6 10-51.5m214.1 159.1c29.1-23.5 48.5-58.5 51.2-98.1h-.6c-2.7 39.3-21.9 74.2-50.9 97.6 0 .2.2.4.3.5M566.1 413c-17.3-4.4-33.2-12-47.2-22.3l-.4.4c14 10.3 30.1 18 47.4 22.4 0-.2.1-.4.2-.6Zm105.8-16.1c-20.9 12.9-45.5 20.3-71.8 20.3s-10.9-.3-16.3-1c0 .2-.1.4-.2.6 5.4.6 10.9 1 16.5 1 26.4 0 51.1-7.5 72.1-20.4 0-.2-.2-.4-.3-.5m-167-17.2.4-.4c-6-5.7-11.4-11.8-16.3-18.5-.2 0-.4.1-.6.2 4.9 6.7 10.5 13 16.5 18.8ZM710.8 168c.2-.1.3-.3.5-.4C681.5 138 642 121.7 600 121.7h-4.9v.6h4.9c43.2 0 82.3 17.5 110.8 45.7m40.5 68.2c3.3 11.3 5.3 23.1 5.9 35.2h.6c-.6-12.2-2.6-24.1-5.9-35.6l-.6.3Zm-5.4-17.4c-5.7-13.6-13.3-26.5-22.7-38.1l-.5.5c9.2 11.5 16.9 24.3 22.6 38l.6-.3Z"/>
    <path d="M442.6 279.7c0-21.8 4.5-42.7 12.6-61.6-.2 0-.3-.2-.5-.3-8.1 19-12.6 39.9-12.6 61.9 0 45.1 19 85.9 49.5 114.7l.4-.4c-30.3-28.7-49.3-69.3-49.3-114.3Zm19.9-77.7c.2 0 .3.2.5.3 23.5-41.5 65.4-71.3 114.5-78.4v-.6c-49.3 7.1-91.3 37-115 78.7M733 363.8c-2.9 4.6-6.1 9.1-9.4 13.3.2 0 .4.2.7.3 3.3-4.2 6.4-8.5 9.2-13-.2-.2-.3-.4-.4-.6Zm22.5-55.9c1.1-6.2 1.9-12.4 2.2-18.8h-.6c-.4 6.4-1.2 12.8-2.3 19 .2 0 .4-.1.7-.2m-4.1 15c-.9 3-1.8 6-2.8 9l.6-.3s.2-.1.3-.2c.9-2.7 1.7-5.3 2.5-8-.2-.1-.4-.3-.5-.5Zm-6.6 18.5c-1.3 3-2.7 6-4.1 8.9h.7c1.3-2.6 2.6-5.3 3.7-8-.1-.3-.2-.7-.3-1Zm-32 48c-5.3 5.4-10.9 10.5-17 15.1l.3.6c5.5-4.2 10.7-8.8 15.6-13.7s.9-.9 1.3-1.4l-.3-.6Zm-68.6 42.1c13.1-3.8 25.6-9.2 37.3-16.3l-.3-.6c-11.5 6.9-23.9 12.4-37 16.3v.7Zm-17.6 3.4c-8.6 1.5-17.5 2.3-26.6 2.3s-15.8-.6-23.5-1.8c0 .2-.2.4-.2.6q11.55 1.8 23.7 1.8c12.15 0 17.9-.8 26.6-2.2v-.6Zm-67.6-3.2c-19.6-5.3-37.8-14.3-53.6-26.3l-.4.4c15.9 12 34.1 21 53.8 26.4 0-.2.1-.4.2-.6Z"/>
  </g>
  <path fill="#001ea4" d="M735.5 173.9c1.1-.7 2.1-1.4 3.2-2-26.5-34.1-65.6-58.6-111.6-65.8-2.6-.4-5.2-.7-7.7-1l-.6 3.8c2.6.3 5.2.6 7.7 1 44.9 7 83 30.8 108.9 64.1Z"/>
  <path fill="#01249e" d="M767.1 225.2c-3.4-10.3-7.7-20.2-12.8-29.6-1.1.7-2.1 1.4-3.2 2 5 9.2 9.2 18.8 12.5 28.9 1.2-.4 2.4-.9 3.6-1.3Zm3 28.9c1.9 12.7 2.5 25.7 1.4 38.9l3.8.6c1.1-13.9.5-27.5-1.6-40.8-1.2.4-2.4.9-3.6 1.3"/>
  <path fill="#001ea4" d="M448.8 198.1c-1-.8-2-1.7-3-2.5-9.5 17.3-16.2 36.5-19.4 57.1-4.5 28.6-1.7 56.8 6.9 82.5 1.2-.5 2.3-1 3.5-1.6-8.3-25.1-11-52.5-6.7-80.4 3.1-19.9 9.5-38.4 18.6-55.2Zm12.7-26.3c1 .8 1.9 1.6 2.9 2.5 30-38.5 75.7-63.3 125.8-66.2l.6-3.8c-51.5 2.7-98.5 28.1-129.3 67.5m73 271c.6-1.1 1.1-2.3 1.7-3.4-38.5-15.4-69.5-44-88.2-79.6-1.2.5-2.3 1.1-3.5 1.6 19.1 36.3 50.7 65.6 90 81.4m134.2-5.5c-28.9 12.7-61.6 17.5-95.1 12.3-3.4-.5-6.7-1.2-10-1.9-.6 1.2-1.2 2.3-1.7 3.5 3.7.8 7.4 1.5 11.2 2.1 34.1 5.3 67.4.4 97-12.5-.4-1.2-.9-2.4-1.3-3.6Zm26.4-9.9c36.8-23.7 64.7-60.9 75.6-105.9l-3.8-.6c-10.7 43.5-37.7 79.6-73.2 102.8.4 1.2.9 2.4 1.3 3.7ZM776 147.8c.3-.2.5-.3.8-.5-33.4-44.6-83.5-76.7-142.7-85.9-2.6-.4-5.2-.7-7.7-1v.9c2.4.3 5 .6 7.6 1 59 9.2 108.8 41.1 142.1 85.5Zm41.2 91c-4.6-24-13-46.9-24.9-67.8-.3.2-.5.3-.8.5 21.5 38 32 82.7 27.6 128.8h.9c1.8-18.9 1.1-37.6-1.9-55.7-.7-1.9-1.1-3.9-1-5.8ZM426.6 143c.2.2.5.4.7.6 40.5-51.2 102.8-83.1 170.4-83.8v-.9c-67.8.6-130.5 32.7-171.2 84.2Zm-15.4 23.9c-.2-.2-.5-.4-.7-.6-14.2 23.7-24.2 50.5-28.7 79.5-6 38.6-1.6 76.5 11.2 110.8l.7-.7c-12.6-34-17-71.6-11-109.9 4.5-28.8 14.4-55.4 28.5-79Zm299.4 304c51.8-30 91.1-80.6 105-142.5h-.9c-13.9 61.4-52.9 111.7-104.4 141.5l.3.9Zm-196.9 11.2c-26.2-11.2-49.5-27.2-69.1-46.8-.2.2-.5.4-.7.6 19.6 19.7 43.1 35.8 69.4 47.1.2-.3.3-.6.5-.8Zm171.1.6c-36.2 15.2-77 20.9-118.5 14.4-8.7-1.4-17.2-3.2-25.5-5.5-.2.3-.3.6-.5.9 8.4 2.4 17 4.2 25.8 5.6 41.7 6.5 82.6.8 119-14.4l-.3-.9Z"/>
  <path fill="#01249e" d="M425.1 414.5c.2-.2.5-.4.7-.6-8-10.4-15.1-21.5-21.2-33.2-.3 0-.7 0-1 .1 6.1 11.9 13.3 23.1 21.4 33.7Z"/>
  <path fill="#001ea4" d="m802.7 130.4.9-.6c-39.8-54.1-98.3-89.5-164.7-99.9-2.6-.4-5.2-.7-7.7-1.1v.9c2.4.3 5 .7 7.6 1.1 68.2 10.6 125.9 47.9 163.9 99.5ZM850 248.1c2.4 18.6 2.7 37.8.7 57.1h.9c2-19.3 1.7-38.6-.6-57.6-.3.1-.7.3-1 .4Z"/>
  <path fill="#01249e" d="M845.7 219.4c-5.6-22.9-14.5-45.1-26.5-65.9l-.9.6c11.8 20.4 20.7 42.5 26.4 65.7.3-.1.7-.3 1-.4"/>
  <path fill="#001ea4" d="M351.2 241c5.4-34.5 17.6-66.3 35-94.2-.2-.2-.5-.4-.7-.6-17.5 28.1-29.8 60-35.2 94.7-11.1 71.3 8.9 140.5 49.9 193.5.2-.2.5-.4.7-.6-40.9-52.9-60.8-121.7-49.8-192.8Zm50.6-118c.2.2.5.4.7.6C449.9 63.8 523.4 27 602.7 27.9V27c-79.5-.9-153.3 36-201 96.1Zm387.8 322.4c-5.8 6.6-11.8 12.8-18.2 18.7.3.2.7.4 1 .6q9.45-8.7 17.7-18.3c-.2-.4-.4-.7-.5-1.1Zm49.4-82.9c3.3-9.5 6-19.2 8.2-29.1h-.9c-2.2 9.9-5 19.7-8.3 29.2.4 0 .7-.1 1.1-.1Zm-10.3 22.7c-2.1 4.6-4.3 9.1-6.7 13.5.3-.1.7-.2 1-.3.2 0 .3-.1.5-.2 2.1-4 4.1-8 6-12.1-.3-.3-.5-.6-.7-.9Zm-15 27.7c-2.8 4.5-5.7 8.8-8.8 13.1.4 0 .8.2 1.2.3q4.05-5.7 7.8-11.7c-.1-.6-.2-1.1-.3-1.7ZM751.3 481c-9.7 7.3-19.9 13.9-30.5 19.7.1.4.2.7.4 1.1 9.7-5.3 19.1-11.2 28.1-17.8l2.4-1.8c-.1-.4-.2-.7-.4-1.1Zm-118.7 49.5c21.6-2.8 42.7-8.3 62.9-16.6-.1-.4-.2-.7-.4-1.1-19.8 8.1-40.8 13.8-62.5 16.6zm-28.7 1.1c-14 .2-28.3-.7-42.6-3-12.6-2-24.9-4.8-36.7-8.5-.2.3-.3.6-.5.8 11.9 3.8 24.3 6.7 37 8.6 14.3 2.2 28.5 3.2 42.7 3v-1Zm-106.1-21.7c-29.7-13.2-56.2-31.9-78.3-54.7-.2.2-.5.4-.7.6 22.1 22.8 48.7 41.6 78.5 54.9.2-.3.3-.5.5-.8"/>
  <circle cx="555.5" cy="431.7" r="9.8" fill="none" stroke="#00fcff" stroke-miterlimit="10" stroke-width=".3"/>
  <circle cx="555.5" cy="431.7" r="6.7" fill="#00fbde"/>
  <circle cx="555.5" cy="431.7" r="3.5" fill="#ccfdff"/>
  <circle cx="496.7" cy="242.5" r="9.8" fill="none" stroke="#00fcff" stroke-miterlimit="10" stroke-width=".3"/>
  <circle cx="496.7" cy="242.5" r="6.7" fill="#00fbde"/>
  <circle cx="496.7" cy="242.5" r="3.5" fill="#ccfdff"/>
  <circle cx="462.5" cy="202" r="9.8" fill="none" stroke="#00fcff" stroke-miterlimit="10" stroke-width=".3"/>
  <circle cx="462.5" cy="202" r="6.7" fill="#00fbde"/>
  <circle cx="462.5" cy="202" r="3.5" fill="#ccfdff"/>
  <circle cx="801.7" cy="419.6" r="2.4" fill="none" stroke="#00fcff" stroke-miterlimit="10" stroke-width=".3"/>
  <circle cx="801.7" cy="419.6" r="1.6" fill="#00fbde"/>
  <circle cx="801.7" cy="419.6" r=".8" fill="#ccfdff"/>
  <circle cx="577.6" cy="173.7" r="3.5" fill="none" stroke="#00fcff" stroke-miterlimit="10" stroke-width=".3"/>
  <circle cx="577.6" cy="173.7" r="2.4" fill="#00fbde"/>
  <circle cx="577.6" cy="173.7" r="1.3" fill="#ccfdff"/>
  <circle cx="711.3" cy="168" r="3.5" fill="none" stroke="#00fcff" stroke-miterlimit="10" stroke-width=".3"/>
  <circle cx="711.3" cy="168" r="2.4" fill="#00fbde"/>
  <circle cx="711.3" cy="168" r="1.3" fill="#ccfdff"/>
  <circle cx="503.1" cy="328.7" r="3.5" fill="none" stroke="#00fcff" stroke-miterlimit="10" stroke-width=".3"/>
  <circle cx="503.1" cy="328.7" r="2.4" fill="#00fbde"/>
  <circle cx="503.1" cy="328.7" r="1.3" fill="#ccfdff"/>
  <circle cx="478.6" cy="346.5" r="3.5" fill="none" stroke="#00fcff" stroke-miterlimit="10" stroke-width=".3"/>
  <circle cx="478.6" cy="346.5" r="2.4" fill="#00fbde"/>
  <circle cx="478.6" cy="346.5" r="1.3" fill="#ccfdff"/>
  <circle cx="592.8" cy="388.2" r="3.5" fill="none" stroke="#00fcff" stroke-miterlimit="10" stroke-width=".3"/>
  <circle cx="592.8" cy="388.2" r="2.4" fill="#00fbde"/>
  <circle cx="592.8" cy="388.2" r="1.3" fill="#ccfdff"/>
  <path fill="#dc30f8" d="m446 229.7-23.8 9.3v21.5c2.9 22.6 23.8 27.4 23.8 27.4s20.9-4.8 23.8-27.4V239zm5.2 35.1c.6 0 1 .5 1 1s-.5 1-1 1h-2.8v2h5.2c.6 0 1 .5 1 1s-.5 1-1 1h-5.2v2h5.2c.6 0 1 .5 1 1s-.5 1-1 1h-5.2c-.1 1.3-1.2 2.4-2.5 2.4s-2.6-1.2-2.6-2.6v-14.9c-4.3-1.3-7.4-5.7-6.4-10.7.7-3.6 3.5-6.6 7.1-7.3 6-1.3 11.4 3.3 11.4 9.1s-3 7.9-6.9 9v4.8h2.8Z"/>
  <g opacity=".8">
    <path fill="#00c8fc" d="M453.6 271h-5.2v1.1h5.2c.6 0 1-.5 1-1s0-.4-.2-.6c-.2.3-.5.5-.9.5Zm-5.2-3h2.8c.6 0 1-.5 1-1s0-.4-.2-.6c-.2.3-.5.5-.9.5h-2.8v1.1Zm0-8v1.1c4-1.1 6.9-4.7 6.9-9v-.5c-.3 4-3.1 7.3-6.9 8.3Zm-5.1 1.1V260c-3.6-1.1-6.3-4.4-6.6-8.3-.3 4.4 2.6 8.2 6.6 9.4m2.7-31.4-23.8 9.4v1.1l23.8-9.3 23.8 9.3v-1.1zm-2.7 46.3c0 1.4 1.2 2.6 2.6 2.6s2.4-1 2.5-2.4h5.2c.6 0 1-.5 1-1s0-.4-.2-.6c-.2.3-.5.5-.9.5h-5.2c-.1 1.3-1.2 2.4-2.5 2.4s-2.6-1.2-2.6-2.6v1.1Z" opacity=".3"/>
  </g>
  <path fill="#00e2ef" d="m933.2 229.7-45.9 27.7-46-27.7 45.7-27z"/>
  <path fill="#00a2ff" d="m887.3 313.7-46-27.7v-56.3l46 27.7z"/>
  <path fill="#001ea4" d="M867.6 293.8c-5.1-2.1-9.3-7.7-9.3-12.6v-12.1c0-4.9 4.2-7.1 9.3-5.1s9.3 7.7 9.3 12.6v12.1c0 4.9-4.2 7.1-9.3 5.1m0-25.5c-2.7-1.1-4.9.1-4.9 2.7v12.1c0 2.6 2.2 5.6 4.9 6.7s4.9-.1 4.9-2.7V275c0-2.6-2.2-5.6-4.9-6.7"/>
  <path fill="#001ea4" d="M860.5 279.2c-5.1-2.1-9.3-7.7-9.3-12.6v-12.1c0-4.9 4.2-7.1 9.3-5.1 5.1 2.1 9.3 7.7 9.3 12.6v12.1c0 4.9-4.2 7.1-9.3 5.1m0-25.5c-2.7-1.1-4.9.1-4.9 2.7v12.1c0 2.6 2.2 5.6 4.9 6.7s4.9-.1 4.9-2.7v-12.1c0-2.6-2.2-5.6-4.9-6.7"/>
  <path fill="#0438ff" d="M862.6 284.4h.3c-.1-.5-.2-1-.2-1.5v-12.4c-1.2-.6-2.4-1.4-3.6-2.3l-.6-.6c0 .4-.1.9-.1 1.4v12.1c0 1.3.3 2.7.8 4 .6-.8 1.8-1.2 3.4-.8Z"/>
  <path fill="#00cbff" d="m887.3 313.7 45.9-27.7v-56.3l-45.9 27.7z"/>
  <path fill="#00fcff" d="M887.3 313.7v-54.8s1.8 29 0 54.8m45.9-84-45.9 27.7s18.4-13.2 45.9-27.7m-91.9 0 45.9 27.7s-18.4-13.2-45.9-27.7"/>
  <path fill="#00e2ef" d="m407.9 363.9-44.2 26.7-44.2-26.7 44-26z"/>
  <path fill="#00a2ff" d="M363.7 444.7 319.5 418v-54.1l44.2 26.7z"/>
  <path fill="#00cbff" d="m363.7 444.7 44.2-26.7v-54.1l-44.2 26.7z"/>
  <g fill="#001ea4">
    <path d="M379.9 403.5c0 4.2 3 5.8 6.6 3.6 3.6-2.3 6.6-7.5 6.6-11.8s-3-5.8-6.6-3.6c-3.6 2.3-6.6 7.5-6.6 11.8"/>
    <path d="M386.6 421.6c-.2.1-.4.2-.5.2-.5 0-11.8-.6-11.8-14.6s5.5-17.7 12.3-21.9 12.3-1.2 12.3 6.6c0 14-11.3 28.7-11.8 29.3-.2.2-.3.4-.5.5Zm0-34c-5.6 3.5-10.2 11.7-10.2 18.2 0 11 8.1 12.9 10.2 13.2 2.1-2.9 10.2-14.9 10.2-25.9s-4.6-9-10.2-5.5"/>
  </g>
  <path fill="#00fcff" d="M363.7 444.7V392s1.7 27.9 0 52.7m44.2-80.8-44.2 26.6s17.7-12.7 44.2-26.6m-88.4 0 44.2 26.6s-17.7-12.7-44.2-26.6"/>
  <path fill="#00e2ef" d="m497.3 130.5 20.4 12.3 20.4-12.3-20.3-12z"/>
  <path fill="#00a2ff" d="m517.7 167.8 20.4-12.3v-25l-20.4 12.3z"/>
  <path fill="#001ea4" d="M534 144.2v-1.3c0-1.7-.9-2.3-2.1-1.4s-1.6 2-1.9 3.3v-1.9c0-1.7-.9-2.3-2.1-1.4s-2.1 3.1-2.1 4.8v1.7c-.4-.7-1.1-.8-1.9-.2-1.2.9-2.1 3.1-2.1 4.8v1.2c-.9 1.4-1.5 3.3-1.5 4.9 0 2.3 1.3 3.1 2.8 1.9l9.6-7.6c1.5-1.2 2.8-4.1 2.8-6.3s-.6-2.4-1.5-2.4Z"/>
  <path fill="#00cbff" d="m517.7 167.8-20.4-12.3v-25l20.4 12.3z"/>
  <path fill="#00fcff" d="M517.7 167.8v-24.3s-.8 12.9 0 24.3m-20.4-37.3 20.4 12.3s-8.2-5.9-20.4-12.3m40.8 0-20.4 12.3s8.2-5.9 20.4-12.3"/>
  <path fill="#00e2ef" d="m773 379.9 29.5 17.9 29.6-17.9-29.4-17.4z"/>
  <path fill="#00a2ff" d="m802.5 434 29.6-17.9v-36.2l-29.6 17.9z"/>
  <path fill="#00cbff" d="M802.5 434 773 416.1v-36.2l29.5 17.9z"/>
  <g fill="#001ea4">
    <path d="M783.9 414.5c0 2.3 1.1 4.8 2.5 5.6s2.5-.4 2.5-2.7-1.1-4.8-2.5-5.6-2.5.4-2.5 2.7m6.6-1.4q-.3-.15-.6-.6c-3.6-6.4-6.5-4-6.6-3.9-.4.3-1 0-1.3-.9-.3-.8-.3-1.7 0-2.1 1.4-1.2 5.1-1.7 8.9 5 .4.7.5 1.7.2 2.2-.2.3-.5.3-.7.2Z"/>
    <path d="M792.4 410c-.3-.1-.5-.4-.7-.8-2.3-4.1-4.7-6.3-7.1-6.6-1.8-.2-2.9.7-2.9.7-.5.4-1.3 0-1.7-1.2-.5-1.1-.4-2.3.1-2.8 2.1-1.8 7.5-2.6 13.1 7.4.5 1 .7 2.3.3 3-.2.4-.6.5-1 .2Z"/>
    <path d="M794.9 406.8c-.3-.2-.6-.5-.9-1-7.9-14-14.4-8.8-14.7-8.6-.6.5-1.6-.1-2.2-1.5s-.5-2.9.1-3.5c0 0 8.6-7.2 18.6 10.5.7 1.2.8 2.9.3 3.7-.3.5-.8.6-1.2.3Z"/>
  </g>
  <path fill="#00fcff" d="M802.5 434v-35.3s-1.1 18.7 0 35.3M773 379.9l29.6 17.8s-11.9-8.5-29.6-17.8"/>
  <path fill="#00fcff" d="m832.1 379.9-29.6 17.8s11.9-8.5 29.6-17.8"/>
  <path fill="#dc30f8" d="m738.7 48.3-53.3 20.9v48.1c6.5 50.6 53.3 61.3 53.3 61.3s46.8-10.6 53.3-61.3V69.2zm11.5 78.4c1.3 0 2.3 1 2.3 2.3s-1 2.3-2.3 2.3H744v4.5h11.7c1.3 0 2.3 1 2.3 2.3s-1 2.3-2.3 2.3H744v4.5h11.7c1.3 0 2.3 1 2.3 2.3s-1 2.3-2.3 2.3H744c-.2 2.9-2.7 5.3-5.7 5.3s-5.7-2.6-5.7-5.7v-33.4c-9.7-3-16.5-12.8-14.4-23.9 1.5-8.1 7.9-14.6 15.9-16.3 13.5-2.9 25.4 7.4 25.4 20.4s-6.6 17.7-15.5 20.1v10.7z"/>
  <path fill="#9f29b7" d="M755.7 140.5H744v2.5h11.7c1.3 0 2.3-1 2.3-2.3s-.1-.9-.4-1.3c-.4.6-1.1 1.1-1.9 1.1m-11.7-6.6h6.2c1.3 0 2.3-1 2.3-2.3s-.1-.9-.4-1.3c-.4.6-1.1 1.1-1.9 1.1H744zm0-17.9v2.5c8.9-2.4 15.5-10.4 15.5-20.1v-1.1c-.6 9-7 16.4-15.4 18.6Zm-11.4 2.3v-2.5c-8.1-2.5-14.2-9.8-14.7-18.6-.6 9.9 5.8 18.4 14.7 21.1m6.1-70-53.3 20.9v2.5l53.3-20.9L792 71.7v-2.5zm-6.1 103.4c0 3.1 2.6 5.7 5.7 5.7s5.4-2.3 5.7-5.3h11.7c1.3 0 2.3-1 2.3-2.3s-.1-.9-.4-1.3c-.4.6-1.1 1.1-1.9 1.1H744c-.2 2.9-2.7 5.3-5.7 5.3s-5.7-2.6-5.7-5.7z" opacity=".8"/>
  <path fill="#dc30f8" d="m548.5 76.8-12.9 5.1v11.6c1.6 12.2 12.9 14.8 12.9 14.8s11.3-2.6 12.9-14.8V81.9zm2.8 18.9c.3 0 .6.3.6.6s-.3.6-.6.6h-1.5V98h2.8c.3 0 .6.3.6.6s-.3.6-.6.6h-2.8v1.1h2.8c.3 0 .6.3.6.6s-.3.6-.6.6h-2.8c0 .7-.7 1.3-1.4 1.3s-1.4-.6-1.4-1.4v-8.1c-2.4-.7-4-3.1-3.5-5.8s1.9-3.5 3.9-4c3.3-.7 6.1 1.8 6.1 4.9s-1.6 4.3-3.8 4.9v2.6h1.5Z"/>
  <g opacity=".8">
    <path fill="#00c8fc" d="M552.6 99.1h-2.8v.6h2.8c.3 0 .6-.3.6-.6v-.3c-.1.2-.3.3-.5.3Zm-2.8-1.6h1.5c.3 0 .6-.3.6-.6v-.3c0 .2-.3.3-.5.3h-1.5v.6Zm0-4.3v.6c2.2-.6 3.8-2.5 3.8-4.9v-.3c-.1 2.2-1.7 4-3.7 4.5Zm-2.8.5v-.6c-2-.6-3.4-2.4-3.6-4.5-.1 2.4 1.4 4.4 3.6 5.1m1.5-16.9-12.9 5v.6l12.9-5 12.9 5v-.6zm-1.5 25c0 .8.6 1.4 1.4 1.4s1.3-.6 1.4-1.3h2.8c.3 0 .6-.3.6-.6v-.3c-.1.2-.3.3-.5.3h-2.8c0 .7-.7 1.3-1.4 1.3s-1.4-.6-1.4-1.4v.6Z" opacity=".3"/>
  </g>
  <path fill="#dc30f8" d="M630 423.5 585.4 441v40.3c5.4 42.4 44.6 51.3 44.6 51.3s39.2-8.9 44.6-51.3V441z"/>
  <path fill="#9f29b7" d="M630 423.5 585.4 441v1.2l44.6-17.4 44.6 17.4V441z"/>
  <path fill="#fff" d="m620.1 506.2-24.8-24.8 11.1-11.2 13.7 13.7 33.5-33.5 11.2 11.2z"/>
  <path fill="#9f29b7" d="m606.4 471.2 13.7 13.7 33.5-33.5 10.7 10.6.5-.4-11.2-11.2-33.5 33.5-13.7-13.7-11.1 11.2.4.4z"/>
  <path fill="#dc30f8" d="M401 99.9 370.2 112v27.8c3.7 29.3 30.8 35.4 30.8 35.4s27.1-6.2 30.8-35.4V112z"/>
  <path fill="#9f29b7" d="m401 99.9-30.9 12v.9l30.9-12.1 30.8 12.1v-.9z"/>
  <path fill="#fff" d="m394.1 157-17.2-17.1 7.7-7.7 9.5 9.4 23.2-23.1 7.7 7.7z"/>
  <path fill="#9f29b7" d="m384.6 132.8 9.5 9.5 23.2-23.2 7.3 7.4.4-.3-7.7-7.7-23.2 23.1-9.5-9.4-7.7 7.7.4.3z"/>
</svg>
