<svg xmlns="http://www.w3.org/2000/svg" xmlns:xlink="http://www.w3.org/1999/xlink" version="1.1" viewBox="0 0 163 204">
  <defs>
    <linearGradient id="a" x1="-789.13" x2="-899.69" y1="3293.61" y2="3331.77" gradientTransform="matrix(1 0 0 -1 859 3397.64)" gradientUnits="userSpaceOnUse">
      <stop offset="0" stop-color="#3fc02f"/>
      <stop offset="1" stop-color="#52e040"/>
    </linearGradient>
    <linearGradient xlink:href="#a" id="b" x1="-724.6" x2="-857.06" y1="3243.51" y2="3317.4"/>
    <linearGradient xlink:href="#a" id="c" x1="-679.47" x2="-809.58" y1="3260.52" y2="3350.27"/>
  </defs>
  <path fill="url(#a)" d="M45.85 140.72c.19-1.27.28-2.54.28-3.81 0-6.44-2.21-12.36-5.92-17.07-.09-.09-.19-.19-.24-.28v-.09c-1.55-1.83-2.44-4.18-2.44-6.77 0-2.21.71-4.28 1.88-5.97v-.05c-7.76-16.31-12.08-34.56-12.08-53.83S31.41 16.37 38.75.43C21.59 11.81 10.3 31.27 10.3 53.42c0 4 .38 7.9 1.08 11.71C8.09 63.44 4.42 62.45.47 62.4a39.2 39.2 0 0 1 10.44 26.7c0 6.02-1.36 11.71-3.81 16.78 1.69.89 2.87 2.63 2.87 4.7 0 1.41-.56 2.63-1.41 3.57-4.47 4.89-7.24 11.42-7.24 18.62 0 10.81 6.25 20.17 15.33 24.73 1.6 13.26 10.53 24.26 22.61 28.82-3.53-5.5-5.55-11.99-5.55-18.99 0-2.77.33-5.45.94-8.09 5.97-4.33 10.11-10.91 11.19-18.52Zm-13.73 1.41c-.19.47-.33.99-.52 1.46-2.35 6.72-3.62 13.96-3.62 21.49 0 1.69.09 3.39.24 5.03a65 65 0 0 1-10.34-27.97c-.09-.61-.14-1.22-.19-1.88.09-4 3.34-7.19 7.33-7.19s7.38 3.29 7.38 7.38c-.09.56-.14 1.13-.28 1.69Z"/>
  <path fill="url(#b)" d="M113.26 160.64v-.05c-.05-.42-.05-.8-.09-1.22-.09-1.08-.19-2.16-.28-3.2-.05-.47-.09-.94-.19-1.41-.14-1.13-.33-2.26-.52-3.39-.05-.24-.09-.52-.14-.75-.23-1.13-.47-2.26-.71-3.34-.09-.47-.23-.89-.33-1.36-.14-.61-.33-1.27-.52-1.88-.14-.56-.28-1.08-.47-1.6-.09-.33-.23-.66-.33-.99-.42-1.27-.85-2.54-1.32-3.76-.09-.28-.19-.56-.33-.8-2.07-5.27-4.7-10.3-7.85-14.95a41 41 0 0 1-3.81-17.3c0-4.84.85-9.54 2.4-13.87-.8 1.32-2.21 2.21-3.86 2.21-2.4 0-4.37-1.88-4.47-4.28-.14-1.13-.33-2.21-.56-3.29-.05-.14-.05-.33-.09-.47-.23-1.03-.47-2.12-.75-3.1-.05-.14-.09-.28-.14-.47-.28-1.08-.61-2.12-.94-3.15l-.05-.09c-.38-1.13-.8-2.21-1.22-3.29-.38-.94-.8-1.88-1.27-2.82-.05-.09-.09-.23-.19-.33-.85-1.79-1.79-3.48-2.87-5.17-.09-.14-.14-.28-.24-.38-.56-.85-1.08-1.69-1.69-2.49l-.05-.05c-.56-.8-1.18-1.6-1.79-2.35-.05-.09-.14-.14-.19-.24-.61-.75-1.27-1.5-1.93-2.26-.09-.09-.14-.19-.23-.28-.66-.71-1.32-1.41-1.97-2.07l-.09-.09c-.71-.71-1.41-1.36-2.12-1.97-.14-.14-.28-.24-.42-.38-1.41-1.22-2.92-2.4-4.42-3.48-.19-.14-.38-.28-.56-.38-.8-.56-1.6-1.08-2.4-1.55-.09-.05-.19-.09-.28-.19-.75-.47-1.5-.89-2.3-1.32a2.6 2.6 0 0 0-.47-.24c-.85-.42-1.69-.85-2.54-1.27-.19-.09-.33-.14-.52-.24-.8-.38-1.6-.71-2.4-1.03-.14-.05-.24-.09-.38-.14-.89-.33-1.79-.66-2.68-.99-.19-.05-.42-.14-.61-.19-.94-.28-1.83-.56-2.82-.85a55.76 55.76 0 0 1 17.77 40.9c0 3.1-.28 6.11-.75 9.07 2.63 5.92 4.09 12.51 4.09 19.42 0 4.75-.71 9.36-1.97 13.73-.38 1.27-.66 2.54-.85 3.86-.05.42-.09.85-.14 1.17 0 .14-.05.28-.05.42-.09 1.08-.14 2.16-.14 3.24 0 2.49.23 4.89.66 7.24-.05.14-.09.28-.19.42.09-.05.14-.09.24-.19.19.94.38 1.88.61 2.82.66 2.54 1.55 4.98 2.63 7.29 1.79 3.81 4.23 7.33 7.05 10.39 5.08 1.93 9.5 5.17 12.74 9.4 0 0 .05 0 .05.05.09.09.14.23.23.38a32 32 0 0 1 2.54 4c3.01 5.03 5.41 10.39 7.24 16.08 1.13 3.53 1.97 7.19 2.59 10.91.05.28.09.56.14.85.14-.56.24-1.18.33-1.74a77.2 77.2 0 0 0 8.56-26.75c.14-1.27.28-2.54.38-3.86.05-.42.05-.85.09-1.27.05-.47.05-.94.09-1.41.05-1.08.09-2.16.09-3.24.09-1.69.05-3.2-.05-4.65Zm-7.61 14.3c-.38 2.54-.85 5.08-1.46 7.52-.56-2.73-1.32-5.41-2.3-7.94-3.1-8.18-8.32-15.37-14.95-20.87-.52-.33-.94-.71-1.41-1.08-.33-.28-.61-.61-.89-.94l-.09-.09c-.28-.33-.52-.66-.75-.99-.52-.8-.94-1.69-1.22-2.63 0-.05-.05-.09-.05-.14l-.28-1.18c0-.09-.05-.23-.05-.33-.05-.47-.09-.94-.09-1.41 0-5.78 4.7-10.48 10.48-10.48 3.53 0 6.68 1.74 8.56 4.42.71 1.69 1.32 3.48 1.88 5.22.38 1.13.71 2.3.99 3.48.05.23.14.52.19.75.28 1.18.56 2.4.8 3.62v.05c.23 1.27.42 2.54.61 3.81 0 .14.05.28.05.42.19 1.32.28 2.63.38 3.95.05.8.09 1.65.14 2.44.05.85.05 1.69.05 2.54.14 3.39-.14 6.68-.56 9.87Z"/>
  <path fill="url(#c)" fill-rule="evenodd" d="M162.52 121.53c0-4.89-1.55-9.4-4.09-13.16-4.42-3.39-7.29-8.7-7.29-14.72 0-2.59.52-5.03 1.46-7.24-7.71-2.02-13.4-9.03-13.4-17.35v-.38a4.86 4.86 0 0 1-3.57-2.73c-10.11-16.97-25.53-30.42-43.96-38.03 10.81 13.21 18.66 28.91 22.57 46.17.66 2.82 1.18 5.69 1.6 8.56 4.09 4.18 6.58 9.92 6.58 16.22 0 1.97-.28 3.86-.71 5.69 4.04 4.18 6.58 9.92 6.58 16.22 0 3.06-.61 5.97-1.65 8.65 2.73 1.93 5.31 4 7.8 6.25.71.75 1.41 1.46 2.21 2.12 2.26 2.26 4.42 4.65 6.35 7.19 6.16 7.94 10.81 17.21 13.4 27.27 3.53-8.7 5.5-18.24 5.5-28.21 0-4.56-.42-9.03-1.22-13.4 1.18-2.82 1.83-5.88 1.83-9.12Zm-7.66 29.95a44.53 44.53 0 0 0-15.37-21.81c-.09-.05-.14-.14-.23-.19-1.69-1.22-2.77-3.15-2.77-5.41 0-3.67 3.01-6.68 6.68-6.68 2.16 0 4.04 1.03 5.27 2.63.19.28.33.52.52.75 5.55 9.12 7.76 20.03 5.92 30.7Z"/>
</svg>
